<svg width="36" height="36" viewBox="0 0 36 36" fill="none" xmlns="http://www.w3.org/2000/svg">
<g clip-path="url(#clip0_6009_119299)">
<path d="M8.83398 18.0007C8.83398 18.0007 12.1673 11.334 18.0007 11.334C23.834 11.334 27.1673 18.0007 27.1673 18.0007C27.1673 18.0007 23.834 24.6673 18.0007 24.6673C12.1673 24.6673 8.83398 18.0007 8.83398 18.0007Z" stroke="black" stroke-width="2" stroke-linecap="round" stroke-linejoin="round"/>
<path d="M18 20.5C19.3807 20.5 20.5 19.3807 20.5 18C20.5 16.6193 19.3807 15.5 18 15.5C16.6193 15.5 15.5 16.6193 15.5 18C15.5 19.3807 16.6193 20.5 18 20.5Z" stroke="black" stroke-width="2" stroke-linecap="round" stroke-linejoin="round"/>
</g>
<circle cx="18" cy="18" r="17" stroke="black" stroke-width="2"/>
<defs>
<clipPath id="clip0_6009_119299">
<rect width="20" height="20" fill="white" transform="translate(8 8)"/>
</clipPath>
</defs>
</svg>
