<svg width="24" height="24" viewBox="0 0 24 24" fill="none" xmlns="http://www.w3.org/2000/svg">
<g clip-path="url(#clip0_6972_33634)">
<path d="M12.4198 16.9905C13.1082 17.4507 13.8844 17.7634 14.6996 17.9089C15.5148 18.0545 16.3512 18.0298 17.1564 17.8363C17.9615 17.6428 18.7179 17.2847 19.3779 16.7846C20.0378 16.2845 20.5872 15.6533 20.9913 14.9305C21.3954 14.2078 21.6455 13.4092 21.726 12.585C21.8064 11.7609 21.7153 10.929 21.4585 10.1418C21.2018 9.35457 20.7848 8.629 20.2339 8.01077C19.6831 7.39254 19.0102 6.89503 18.2576 6.54955C18.0883 6.47051 17.9546 6.33109 17.8826 6.15861C17.3972 4.99963 16.58 4.00997 15.5339 3.31394C14.4877 2.61792 13.2592 2.24658 12.0026 2.24658C10.7461 2.24658 9.51758 2.61792 8.47141 3.31394C7.42525 4.00997 6.60811 4.99963 6.12264 6.15861C6.05072 6.33109 5.91698 6.47051 5.74765 6.54955C4.9951 6.89503 4.32222 7.39254 3.77134 8.01077C3.22047 8.629 2.80352 9.35457 2.54674 10.1418C2.28997 10.929 2.19892 11.7609 2.27934 12.585C2.35975 13.4092 2.60988 14.2078 3.01399 14.9305C3.4181 15.6533 3.96744 16.2845 4.62744 16.7846C5.28743 17.2847 6.0438 17.6428 6.84893 17.8363C7.65406 18.0298 8.49052 18.0545 9.30568 17.9089C10.1208 17.7634 10.8971 17.4507 11.5855 16.9905C11.7089 16.9079 11.8541 16.8637 12.0026 16.8637C12.1512 16.8637 12.2964 16.9079 12.4198 16.9905Z" fill="#FBECEE"/>
<path d="M12 21.75V8.25" stroke="#C00018" stroke-linecap="round" stroke-linejoin="round"/>
<path d="M12 14.25L7.5 12" stroke="#C00018" stroke-linecap="round" stroke-linejoin="round"/>
<path d="M12 12L16.5 9.75" stroke="#C00018" stroke-linecap="round" stroke-linejoin="round"/>
<path d="M12.4198 16.9905C13.1082 17.4507 13.8844 17.7634 14.6996 17.9089C15.5148 18.0545 16.3512 18.0298 17.1564 17.8363C17.9615 17.6428 18.7179 17.2847 19.3779 16.7846C20.0378 16.2845 20.5872 15.6533 20.9913 14.9305C21.3954 14.2078 21.6455 13.4092 21.726 12.585C21.8064 11.7609 21.7153 10.929 21.4585 10.1418C21.2018 9.35457 20.7848 8.629 20.2339 8.01077C19.6831 7.39254 19.0102 6.89503 18.2576 6.54955C18.0883 6.47051 17.9546 6.33109 17.8826 6.15861C17.3972 4.99963 16.58 4.00997 15.5339 3.31394C14.4877 2.61792 13.2592 2.24658 12.0026 2.24658C10.7461 2.24658 9.51758 2.61792 8.47141 3.31394C7.42525 4.00997 6.60811 4.99963 6.12264 6.15861C6.05072 6.33109 5.91698 6.47051 5.74765 6.54955C4.9951 6.89503 4.32222 7.39254 3.77134 8.01077C3.22047 8.629 2.80352 9.35457 2.54674 10.1418C2.28997 10.929 2.19892 11.7609 2.27934 12.585C2.35975 13.4092 2.60988 14.2078 3.01399 14.9305C3.4181 15.6533 3.96744 16.2845 4.62744 16.7846C5.28743 17.2847 6.0438 17.6428 6.84893 17.8363C7.65406 18.0298 8.49052 18.0545 9.30568 17.9089C10.1208 17.7634 10.8971 17.4507 11.5855 16.9905C11.7089 16.9079 11.8541 16.8637 12.0026 16.8637C12.1512 16.8637 12.2964 16.9079 12.4198 16.9905Z" stroke="#C00018" stroke-linecap="round" stroke-linejoin="round"/>
</g>
<defs>
<clipPath id="clip0_6972_33634">
<rect width="24" height="24" fill="white"/>
</clipPath>
</defs>
</svg>
