<svg width="24" height="24" viewBox="0 0 24 24" fill="none" xmlns="http://www.w3.org/2000/svg">
<g clip-path="url(#clip0_514_10668)">
<path d="M2.1001 23.1004V7.97204L11.9989 2.14844L21.9001 7.97204V23.1004H2.1001Z" fill="#FBECEE"/>
<path d="M11.9986 2.49678L21.5998 8.14398V22.8008H2.3998V8.14398L11.9986 2.49678ZM11.9986 1.80078L1.7998 7.80078V23.4008H22.1998V7.80078L11.9986 1.80078Z" fill="#C00018"/>
<path d="M11.9987 2.78852L0.899902 9.57452V7.73912L11.9987 0.953125L23.0999 7.73912V9.57452L11.9987 2.78852Z" fill="#F6D9DC"/>
<path d="M11.9989 1.30476L22.8001 7.90716V9.03936L12.3115 2.62836L11.9983 2.43696L11.6851 2.62836L1.2001 9.03936V7.90716L11.9989 1.30476ZM11.9989 0.601562L0.600098 7.57056V10.1092L11.9989 3.14016L23.4001 10.1092V7.57056L11.9989 0.601562Z" fill="#C00018"/>
<path d="M8.7002 12.9023H15.3002V23.1023H8.7002V12.9023Z" fill="#F6D9DC"/>
<path d="M14.9999 13.2016V22.8016H8.9999V13.2016H14.9999ZM15.5999 12.6016H8.3999V23.4016H15.5999V12.6016Z" fill="#C00018"/>
<path d="M13.8002 18C13.6411 18 13.4885 18.0632 13.3759 18.1757C13.2634 18.2883 13.2002 18.4409 13.2002 18.6C13.2002 18.7591 13.2634 18.9117 13.3759 19.0243C13.4885 19.1368 13.6411 19.2 13.8002 19.2C13.9593 19.2 14.1119 19.1368 14.2245 19.0243C14.337 18.9117 14.4002 18.7591 14.4002 18.6C14.4002 18.4409 14.337 18.2883 14.2245 18.1757C14.1119 18.0632 13.9593 18 13.8002 18Z" fill="#C00018"/>
</g>
<defs>
<clipPath id="clip0_514_10668">
<rect width="24" height="24" fill="white"/>
</clipPath>
</defs>
</svg>
