<svg width="25" height="24" viewBox="0 0 25 24" fill="none" xmlns="http://www.w3.org/2000/svg">
<g clip-path="url(#clip0_2516_68141)">
<path d="M3.48338 13.6406C3.09286 11.5328 3.46755 9.35478 4.54 7.49862C5.61245 5.64246 7.31222 4.23005 9.33337 3.51562V10.2656L3.48338 13.6406Z" fill="#FBECEE"/>
<path d="M3.48338 13.6406C3.09286 11.5328 3.46755 9.35478 4.54 7.49862C5.61245 5.64246 7.31222 4.23005 9.33338 3.51562V10.2656L3.48338 13.6406Z" stroke="#C00018" stroke-width="0.6" stroke-linecap="round" stroke-linejoin="round"/>
<path d="M12.3334 12.0394V3C13.9102 3.00024 15.4593 3.41475 16.8255 4.20202C18.1918 4.9893 19.3272 6.12171 20.1181 7.48585C20.909 8.84999 21.3276 10.398 21.332 11.9748C21.3364 13.5516 20.9265 15.1019 20.1432 16.4705C19.36 17.839 18.2309 18.9778 16.8691 19.7727C15.5073 20.5676 13.9606 20.9908 12.3838 20.9999C10.807 21.0089 9.25546 20.6035 7.88461 19.8243C6.51375 19.0451 5.37168 17.9195 4.57275 16.56L20.1278 7.5" fill="white"/>
<path d="M12.3334 12.0394V3C13.9102 3.00024 15.4593 3.41475 16.8255 4.20202C18.1918 4.9893 19.3272 6.12171 20.1181 7.48585C20.909 8.84999 21.3276 10.398 21.332 11.9748C21.3364 13.5516 20.9265 15.1019 20.1432 16.4705C19.36 17.839 18.2309 18.9778 16.8691 19.7727C15.5073 20.5676 13.9606 20.9908 12.3838 20.9999C10.807 21.0089 9.25546 20.6036 7.88461 19.8243C6.51375 19.0451 5.37168 17.9195 4.57275 16.56L20.1278 7.5" stroke="#C00018" stroke-width="0.6" stroke-linecap="round" stroke-linejoin="round"/>
</g>
<defs>
<clipPath id="clip0_2516_68141">
<rect width="24" height="24" fill="white" transform="translate(0.333496)"/>
</clipPath>
</defs>
</svg>
