<svg width="24" height="32" viewBox="0 0 24 32" fill="none" xmlns="http://www.w3.org/2000/svg">
<g clip-path="url(#clip0_1100_49529)">
<path d="M14.2342 0H0V32H23.0067V8.77245L14.2342 0Z" fill="#F0F0F0"/>
<path d="M0 12.9493V22.1675C0.0143792 22.1675 0.0287584 22.1663 0.0431375 22.1663H21.2484V12.9481H0.0431375C0.0287584 12.9481 0.0143792 12.9487 0 12.9493Z" fill="#8D83A6"/>
<path d="M14.2344 0L23.0068 8.77245H16.1054C15.0724 8.77245 14.2344 7.93501 14.2344 6.90143V0Z" fill="#8D83A6"/>
<path d="M3.3003 19.3062C3.25774 19.2636 3.22266 19.1929 3.22266 19.1152C3.22266 18.9662 3.35034 18.8391 3.49874 18.8391C3.59076 18.8391 3.65461 18.8886 3.69717 18.9381C3.96635 19.3062 4.25623 19.4971 4.71694 19.4971C5.276 19.4971 5.68667 19.0934 5.68667 18.3077V15.2351C5.68667 15.0793 5.81436 14.9521 5.96966 14.9521C6.12495 14.9521 6.24573 15.0798 6.24573 15.2351V18.3008C6.24573 18.8811 6.07606 19.3205 5.7925 19.6035C5.51642 19.8727 5.14141 20.0142 4.70199 20.0142C4.0509 20.0142 3.60457 19.7168 3.3003 19.3062Z" fill="white"/>
<path d="M7.56982 15.2704C7.56982 15.1145 7.69751 14.9874 7.8459 14.9874H9.42474C10.5434 14.9874 11.2797 15.5821 11.2797 16.5594V16.5737C11.2797 17.643 10.3876 18.1951 9.33271 18.1951H8.12889V19.6963C8.12889 19.8522 8.0012 19.9793 7.8459 19.9793C7.69061 19.9793 7.56982 19.8516 7.56982 19.6963V15.2716V15.2704ZM9.35399 17.6844C10.1753 17.6844 10.7131 17.2455 10.7131 16.5939V16.5795C10.7131 15.8715 10.1822 15.5034 9.38218 15.5034H8.12889V17.6838H9.35399V17.6844Z" fill="white"/>
<path d="M12.0796 17.4797V17.4653C12.0796 16.1062 13.0781 14.9023 14.5649 14.9023C15.3155 14.9023 15.8038 15.1008 16.257 15.4332C16.3209 15.4827 16.3703 15.5609 16.3703 15.6598C16.3703 15.8157 16.2427 15.9428 16.0943 15.9428C16.0304 15.9428 15.974 15.9146 15.9171 15.8721C15.5634 15.6029 15.1665 15.4188 14.5436 15.4188C13.4462 15.4188 12.6605 16.346 12.6605 17.4509V17.4653C12.6605 18.6478 13.418 19.5255 14.6218 19.5255C15.1884 19.5255 15.7123 19.3058 16.0517 19.0297V17.7977H14.7208C14.5862 17.7977 14.4729 17.6844 14.4729 17.5498C14.4729 17.4083 14.5862 17.295 14.7208 17.295H16.314C16.4624 17.295 16.5901 17.4227 16.5901 17.578V19.0861C16.5901 19.2207 16.5262 19.3409 16.3991 19.426C15.9459 19.7591 15.3373 20.0277 14.6005 20.0277C13.043 20.0277 12.0802 18.8952 12.0802 17.4791L12.0796 17.4797Z" fill="white"/>
</g>
<defs>
<clipPath id="clip0_1100_49529">
<rect width="23.0067" height="32" fill="white"/>
</clipPath>
</defs>
</svg>
