<svg width="21" height="21" viewBox="0 0 21 21" fill="none" xmlns="http://www.w3.org/2000/svg">
<path d="M7.85156 10.5352C7.58063 9.87049 7.44261 9.15917 7.44531 8.44141C7.44531 7.32889 7.77521 6.24135 8.3933 5.31633C9.01138 4.3913 9.88988 3.67033 10.9177 3.24459C11.9456 2.81884 13.0766 2.70745 14.1677 2.92449C15.2588 3.14153 16.2611 3.67726 17.0478 4.46393C17.8345 5.2506 18.3702 6.25288 18.5872 7.34403C18.8043 8.43517 18.6929 9.56617 18.2671 10.594C17.8414 11.6218 17.1204 12.5003 16.1954 13.1184C15.2704 13.7365 14.1828 14.0664 13.0703 14.0664C12.3526 14.0691 11.6412 13.9311 10.9766 13.6602L9.94531 14.6914H8.07031V16.5664H6.19531V18.4414H3.07031V15.3164L7.85156 10.5352Z" stroke="black" stroke-linecap="round" stroke-linejoin="round"/>
<path d="M14.6328 7.81641C15.1506 7.81641 15.5703 7.39667 15.5703 6.87891C15.5703 6.36114 15.1506 5.94141 14.6328 5.94141C14.115 5.94141 13.6953 6.36114 13.6953 6.87891C13.6953 7.39667 14.115 7.81641 14.6328 7.81641Z" fill="black"/>
</svg>
