<svg width="28" height="30" viewBox="0 0 28 30" fill="none" xmlns="http://www.w3.org/2000/svg">
<g clip-path="url(#clip0_238_11503)">
<path d="M2.09961 23.1004V7.97204L11.9984 2.14844L21.8996 7.97204V23.1004H2.09961Z" fill="#FBECEE"/>
<path d="M11.9986 2.49678L21.5998 8.14398V22.8008H2.3998V8.14398L11.9986 2.49678ZM11.9986 1.80078L1.7998 7.80078V23.4008H22.1998V7.80078L11.9986 1.80078Z" fill="#C00018"/>
<path d="M11.9992 2.78852L0.900391 9.57452V7.73912L11.9992 0.953125L23.1004 7.73912V9.57452L11.9992 2.78852Z" fill="#F6D9DC"/>
<path d="M11.9984 1.30476L22.7996 7.90716V9.03936L12.311 2.62836L11.9978 2.43696L11.6846 2.62836L1.19961 9.03936V7.90716L11.9984 1.30476ZM11.9984 0.601562L0.599609 7.57056V10.1092L11.9984 3.14016L23.3996 10.1092V7.57056L11.9984 0.601562Z" fill="#C00018"/>
<path d="M8.70117 12.9023H15.3012V23.1023H8.70117V12.9023Z" fill="#F6D9DC"/>
<path d="M15.0004 13.2016V22.8016H9.00039V13.2016H15.0004ZM15.6004 12.6016H8.40039V23.4016H15.6004V12.6016Z" fill="#C00018"/>
<path d="M13.8002 18C13.6411 18 13.4885 18.0632 13.3759 18.1757C13.2634 18.2883 13.2002 18.4409 13.2002 18.6C13.2002 18.7591 13.2634 18.9117 13.3759 19.0243C13.4885 19.1368 13.6411 19.2 13.8002 19.2C13.9593 19.2 14.1119 19.1368 14.2245 19.0243C14.337 18.9117 14.4002 18.7591 14.4002 18.6C14.4002 18.4409 14.337 18.2883 14.2245 18.1757C14.1119 18.0632 13.9593 18 13.8002 18Z" fill="#C00018"/>
<path d="M28 24C28 27.3137 25.3137 30 22 30C18.6863 30 16 27.3137 16 24C16 20.6863 18.6863 18 22 18C25.3137 18 28 20.6863 28 24Z" fill="#FBECEE"/>
<path fill-rule="evenodd" clip-rule="evenodd" d="M22 29.3C24.9271 29.3 27.3 26.9271 27.3 24C27.3 21.0729 24.9271 18.7 22 18.7C19.0729 18.7 16.7 21.0729 16.7 24C16.7 26.9271 19.0729 29.3 22 29.3ZM22 30C25.3137 30 28 27.3137 28 24C28 20.6863 25.3137 18 22 18C18.6863 18 16 20.6863 16 24C16 27.3137 18.6863 30 22 30Z" fill="#C00018"/>
<path fill-rule="evenodd" clip-rule="evenodd" d="M25 21.75H22.75V22.25H24.429L22.2308 24.6314L21.2606 23.5804C21.2133 23.5292 21.1467 23.5 21.0769 23.5C21.0071 23.5 20.9406 23.5292 20.8932 23.5804L18.8163 25.8304C18.7226 25.9319 18.729 26.0901 18.8304 26.1837C18.9319 26.2774 19.0901 26.271 19.1837 26.1696L21.0769 24.1186L22.0471 25.1696C22.0944 25.2208 22.161 25.25 22.2308 25.25C22.3005 25.25 22.3671 25.2208 22.4145 25.1696L24.75 22.6394V24.25H25.25V22.0012V22C25.25 21.9649 25.2428 21.9314 25.2297 21.9011C25.2137 21.8641 25.189 21.8316 25.1582 21.8064C25.1386 21.7904 25.1164 21.7772 25.0925 21.7677C24.9991 21.7305 24.8885 21.7522 24.8163 21.8304" fill="#C00018"/>
</g>
<defs>
<clipPath id="clip0_238_11503">
<rect width="28" height="30" fill="white"/>
</clipPath>
</defs>
</svg>
