<svg width="61" height="60" viewBox="0 0 61 60" fill="none" xmlns="http://www.w3.org/2000/svg">
<g clip-path="url(#clip0_4387_95577)">
<path d="M5.4248 53.926V16.7546L17.1363 12.1719V53.926H5.4248Z" fill="white"/>
<path d="M54.3086 53.4214V23.503L42.0879 19.8145V53.4214H54.3086Z" fill="white"/>
<path d="M58.3819 53.4198H55.0823V24.1919C55.083 23.9931 55.0255 23.7985 54.9169 23.632C54.8084 23.4656 54.6534 23.3345 54.4713 23.255L42.7496 18.163C42.5943 18.0953 42.4246 18.0673 42.2558 18.0817C42.087 18.096 41.9245 18.1523 41.7829 18.2453C41.6414 18.3383 41.5252 18.4652 41.4451 18.6144C41.3649 18.7637 41.3232 18.9305 41.3238 19.0999V53.4198H18.41V12.1239C18.4091 11.9562 18.3668 11.7913 18.2869 11.6438C18.2069 11.4964 18.0918 11.3709 17.9517 11.2787C17.8108 11.184 17.6486 11.126 17.4796 11.11C17.3106 11.094 17.1404 11.1205 16.9842 11.187L5.11994 16.279C4.93778 16.3585 4.78285 16.4896 4.67428 16.656C4.5657 16.8225 4.50822 17.0172 4.50891 17.2159V53.4198H1.35189C1.08179 53.4198 0.822762 53.5271 0.631776 53.7181C0.440791 53.909 0.333496 54.1681 0.333496 54.4382C0.333496 54.7083 0.440791 54.9673 0.631776 55.1583C0.822762 55.3493 1.08179 55.4566 1.35189 55.4566H58.3819C58.652 55.4566 58.911 55.3493 59.102 55.1583C59.293 54.9673 59.4003 54.7083 59.4003 54.4382C59.4003 54.1681 59.293 53.909 59.102 53.7181C58.911 53.5271 58.652 53.4198 58.3819 53.4198ZM6.54569 53.4198V17.8881L16.3732 13.7025V53.4198H6.54569ZM43.3606 53.4198V20.6479L53.0455 24.9048V53.4198H43.3606Z" fill="#C00018"/>
<path d="M49.5941 28.1992H46.5389C46.2688 28.1992 46.0098 28.3065 45.8188 28.4975C45.6278 28.6885 45.5205 28.9475 45.5205 29.2176C45.5205 29.4877 45.6278 29.7467 45.8188 29.9377C46.0098 30.1287 46.2688 30.236 46.5389 30.236H49.5941C49.8642 30.236 50.1232 30.1287 50.3142 29.9377C50.5052 29.7467 50.6125 29.4877 50.6125 29.2176C50.6125 28.9475 50.5052 28.6885 50.3142 28.4975C50.1232 28.3065 49.8642 28.1992 49.5941 28.1992Z" fill="#C00018"/>
<path d="M49.5941 34.8125H46.5389C46.2688 34.8125 46.0098 34.9198 45.8188 35.1108C45.6278 35.3018 45.5205 35.5608 45.5205 35.8309C45.5205 36.101 45.6278 36.36 45.8188 36.551C46.0098 36.742 46.2688 36.8493 46.5389 36.8493H49.5941C49.8642 36.8493 50.1232 36.742 50.3142 36.551C50.5052 36.36 50.6125 36.101 50.6125 35.8309C50.6125 35.5608 50.5052 35.3018 50.3142 35.1108C50.1232 34.9198 49.8642 34.8125 49.5941 34.8125Z" fill="#C00018"/>
<path d="M49.5941 41.4453H46.5389C46.2688 41.4453 46.0098 41.5526 45.8188 41.7436C45.6278 41.9346 45.5205 42.1936 45.5205 42.4637C45.5205 42.7338 45.6278 42.9928 45.8188 43.1838C46.0098 43.3748 46.2688 43.4821 46.5389 43.4821H49.5941C49.8642 43.4821 50.1232 43.3748 50.3142 43.1838C50.5052 42.9928 50.6125 42.7338 50.6125 42.4637C50.6125 42.1936 50.5052 41.9346 50.3142 41.7436C50.1232 41.5526 49.8642 41.4453 49.5941 41.4453Z" fill="#C00018"/>
<path d="M49.5941 48.0801H46.5389C46.2688 48.0801 46.0098 48.1874 45.8188 48.3784C45.6278 48.5693 45.5205 48.8284 45.5205 49.0985C45.5205 49.3686 45.6278 49.6276 45.8188 49.8186C46.0098 50.0096 46.2688 50.1169 46.5389 50.1169H49.5941C49.8642 50.1169 50.1232 50.0096 50.3142 49.8186C50.5052 49.6276 50.6125 49.3686 50.6125 49.0985C50.6125 48.8284 50.5052 48.5693 50.3142 48.3784C50.1232 48.1874 49.8642 48.0801 49.5941 48.0801Z" fill="#C00018"/>
<path d="M12.5545 28.1406H9.49935C9.22926 28.1406 8.97022 28.2479 8.77924 28.4389C8.58825 28.6299 8.48096 28.8889 8.48096 29.159C8.48096 29.4291 8.58825 29.6881 8.77924 29.8791C8.97022 30.0701 9.22926 30.1774 9.49935 30.1774H12.5545C12.8246 30.1774 13.0837 30.0701 13.2746 29.8791C13.4656 29.6881 13.5729 29.4291 13.5729 29.159C13.5729 28.8889 13.4656 28.6299 13.2746 28.4389C13.0837 28.2479 12.8246 28.1406 12.5545 28.1406Z" fill="#C00018"/>
<path d="M12.5545 34.7637H9.49935C9.22926 34.7637 8.97022 34.871 8.77924 35.062C8.58825 35.2529 8.48096 35.512 8.48096 35.7821C8.48096 36.0522 8.58825 36.3112 8.77924 36.5022C8.97022 36.6932 9.22926 36.8005 9.49935 36.8005H12.5545C12.8246 36.8005 13.0837 36.6932 13.2746 36.5022C13.4656 36.3112 13.5729 36.0522 13.5729 35.7821C13.5729 35.512 13.4656 35.2529 13.2746 35.062C13.0837 34.871 12.8246 34.7637 12.5545 34.7637Z" fill="#C00018"/>
<path d="M12.5545 21.5176H9.49935C9.22926 21.5176 8.97022 21.6249 8.77924 21.8159C8.58825 22.0068 8.48096 22.2659 8.48096 22.536C8.48096 22.8061 8.58825 23.0651 8.77924 23.2561C8.97022 23.4471 9.22926 23.5544 9.49935 23.5544H12.5545C12.8246 23.5544 13.0837 23.4471 13.2746 23.2561C13.4656 23.0651 13.5729 22.8061 13.5729 22.536C13.5729 22.2659 13.4656 22.0068 13.2746 21.8159C13.0837 21.6249 12.8246 21.5176 12.5545 21.5176Z" fill="#C00018"/>
<path d="M12.5545 41.3984H9.49935C9.22926 41.3984 8.97022 41.5057 8.77924 41.6967C8.58825 41.8877 8.48096 42.1467 8.48096 42.4168C8.48096 42.6869 8.58825 42.946 8.77924 43.1369C8.97022 43.3279 9.22926 43.4352 9.49935 43.4352H12.5545C12.8246 43.4352 13.0837 43.3279 13.2746 43.1369C13.4656 42.946 13.5729 42.6869 13.5729 42.4168C13.5729 42.1467 13.4656 41.8877 13.2746 41.6967C13.0837 41.5057 12.8246 41.3984 12.5545 41.3984Z" fill="#C00018"/>
<path d="M12.5545 48.0137H9.49935C9.22926 48.0137 8.97022 48.121 8.77924 48.312C8.58825 48.5029 8.48096 48.762 8.48096 49.0321C8.48096 49.3022 8.58825 49.5612 8.77924 49.7522C8.97022 49.9432 9.22926 50.0505 9.49935 50.0505H12.5545C12.8246 50.0505 13.0837 49.9432 13.2746 49.7522C13.4656 49.5612 13.5729 49.3022 13.5729 49.0321C13.5729 48.762 13.4656 48.5029 13.2746 48.312C13.0837 48.121 12.8246 48.0137 12.5545 48.0137Z" fill="#C00018"/>
<rect x="17.6455" y="5.55859" width="24.4414" height="48.8829" fill="#FBECEE"/>
<rect x="24.7754" y="39.168" width="10.1839" height="15.2759" fill="white"/>
<path d="M42.3421 4.53906H17.3914C17.1213 4.53906 16.8623 4.64636 16.6713 4.83734C16.4803 5.02833 16.373 5.28736 16.373 5.55746V54.4403C16.373 54.7104 16.4803 54.9694 16.6713 55.1604C16.8623 55.3514 17.1213 55.4587 17.3914 55.4587H42.3421C42.6122 55.4587 42.8712 55.3514 43.0622 55.1604C43.2532 54.9694 43.3605 54.7104 43.3605 54.4403V5.55746C43.3605 5.28736 43.2532 5.02833 43.0622 4.83734C42.8712 4.64636 42.6122 4.53906 42.3421 4.53906ZM25.7932 53.4219V40.1217H33.9403V53.4219H25.7932ZM41.3339 53.4219H35.9771V39.1033C35.9771 38.8332 35.8698 38.5742 35.6788 38.3832C35.4878 38.1922 35.2288 38.0849 34.9587 38.0849H24.7748C24.5047 38.0849 24.2457 38.1922 24.0547 38.3832C23.8637 38.5742 23.7564 38.8332 23.7564 39.1033V53.4219H18.4098V6.57585H41.3237L41.3339 53.4219Z" fill="#C00018"/>
</g>
<defs>
<clipPath id="clip0_4387_95577">
<rect width="60" height="60" fill="white" transform="translate(0.333496)"/>
</clipPath>
</defs>
</svg>
