<svg width="61" height="60" viewBox="0 0 61 60" fill="none" xmlns="http://www.w3.org/2000/svg">
<g clip-path="url(#clip0_2506_61407)">
<path d="M8.20835 34.1016C7.23206 28.832 8.16878 23.3869 10.8499 18.7465C13.531 14.1061 17.7805 10.5751 22.8333 8.78906V25.6641L8.20835 34.1016Z" fill="#FBECEE"/>
<path d="M8.20835 34.1016C7.23206 28.832 8.16878 23.3869 10.8499 18.7465C13.531 14.1061 17.7805 10.5751 22.8333 8.78906V25.6641L8.20835 34.1016Z" stroke="#C00018" stroke-width="2" stroke-linecap="round" stroke-linejoin="round"/>
<path d="M30.3334 30.0984V7.5C34.2754 7.50059 38.1482 8.53687 41.5637 10.5051C44.9793 12.4732 47.8179 15.3043 49.7951 18.7146C51.7723 22.125 52.8189 25.9949 52.8299 29.937C52.8409 33.8791 51.8161 37.7548 49.858 41.1762C47.8999 44.5976 45.0772 47.4444 41.6727 49.4317C38.2682 51.419 34.4013 52.477 30.4593 52.4996C26.5173 52.5223 22.6386 51.5089 19.2114 49.5609C15.7843 47.6129 12.9291 44.7986 10.9318 41.4L49.8193 18.75" stroke="#C00018" stroke-width="2" stroke-linecap="round" stroke-linejoin="round"/>
</g>
<defs>
<clipPath id="clip0_2506_61407">
<rect width="60" height="60" fill="white" transform="translate(0.333344)"/>
</clipPath>
</defs>
</svg>
