<svg width="61" height="60" viewBox="0 0 61 60" fill="none" xmlns="http://www.w3.org/2000/svg">
<path d="M10.4167 56.25V3.75H37.8562L50.9167 16.8105V56.25H10.4167Z" fill="white"/>
<path d="M37.5456 4.49805L50.1666 17.119V55.4981H11.1666V4.49805H37.5456ZM38.1666 2.99805H9.66663V56.9981H51.6666V16.498L38.1666 2.99805Z" fill="#C00018"/>
<path d="M37.4167 17.25V3.75H37.8562L50.9167 16.8105V17.25H37.4167Z" fill="#FBECEE"/>
<path d="M38.1666 5.11905L49.5456 16.498H38.1666V5.11905ZM38.1666 2.99805H36.6666V17.998H51.6666V16.498L38.1666 2.99805ZM41.9166 25.498H19.4166C19.0026 25.498 18.6666 25.162 18.6666 24.748C18.6666 24.334 19.0026 23.998 19.4166 23.998H41.9166C42.3306 23.998 42.6666 24.334 42.6666 24.748C42.6666 25.162 42.3306 25.498 41.9166 25.498ZM35.9166 29.998H19.4166C19.0026 29.998 18.6666 29.662 18.6666 29.248C18.6666 28.834 19.0026 28.498 19.4166 28.498H35.9166C36.3306 28.498 36.6666 28.834 36.6666 29.248C36.6666 29.662 36.3306 29.998 35.9166 29.998ZM41.9166 34.498H19.4166C19.0026 34.498 18.6666 34.162 18.6666 33.748C18.6666 33.334 19.0026 32.998 19.4166 32.998H41.9166C42.3306 32.998 42.6666 33.334 42.6666 33.748C42.6666 34.162 42.3306 34.498 41.9166 34.498ZM35.9166 38.998H19.4166C19.0026 38.998 18.6666 38.662 18.6666 38.248C18.6666 37.834 19.0026 37.498 19.4166 37.498H35.9166C36.3306 37.498 36.6666 37.834 36.6666 38.248C36.6666 38.662 36.3306 38.998 35.9166 38.998ZM41.9166 43.498H19.4166C19.0026 43.498 18.6666 43.162 18.6666 42.748C18.6666 42.334 19.0026 41.998 19.4166 41.998H41.9166C42.3306 41.998 42.6666 42.334 42.6666 42.748C42.6666 43.162 42.3306 43.498 41.9166 43.498Z" fill="#C00018"/>
</svg>
