<svg width="61" height="60" viewBox="0 0 61 60" fill="none" xmlns="http://www.w3.org/2000/svg">
<g clip-path="url(#clip0_5795_104256)">
<path d="M18.4505 28.8891L21.5723 23.4375C21.7371 23.1521 21.9743 22.9151 22.2598 22.7505C22.5454 22.5859 22.8693 22.4995 23.1989 22.5H27.1153C27.432 22.5005 27.7434 22.4198 28.02 22.2657L30.9005 20.6813C31.0272 20.6131 31.1446 20.5288 31.2497 20.4305L37.5591 14.7282C37.873 14.4426 38.0808 14.0591 38.1485 13.6402C38.2162 13.2212 38.1397 12.7918 37.9317 12.4219L35.4708 8.01331C33.8921 7.67134 32.2814 7.49927 30.6661 7.50003C25.5302 7.49219 20.5475 9.2488 16.552 12.4758L13.7911 19.0032C13.6046 19.445 13.5945 19.9416 13.763 20.3907L16.4583 27.5789C16.569 27.8726 16.7517 28.1338 16.9897 28.3386C17.2276 28.5433 17.5131 28.6851 17.82 28.7508L18.4505 28.8891Z" fill="#FBECEE"/>
<path d="M38.3327 32.874C38.1095 32.7379 37.8605 32.6493 37.6015 32.6138L32.253 31.892C31.8514 31.8376 31.4428 31.9148 31.0888 32.1122C30.7347 32.3095 30.4541 32.6163 30.289 32.9865L27.078 40.1912C26.9288 40.5264 26.8812 40.8981 26.9412 41.2602C27.0012 41.6222 27.1661 41.9587 27.4155 42.2279L32.0421 46.9927C32.2427 47.2084 32.3896 47.4682 32.4711 47.7512C32.5525 48.0342 32.5661 48.3324 32.5109 48.6216L31.7679 52.4748C35.6872 52.2841 39.4884 51.0717 42.7944 48.9581C46.1003 46.8444 48.7961 43.9029 50.614 40.4255L38.3327 32.874Z" fill="#FBECEE"/>
<path d="M30.666 52.5C43.0924 52.5 53.166 42.4264 53.166 30C53.166 17.5736 43.0924 7.5 30.666 7.5C18.2396 7.5 8.16602 17.5736 8.16602 30C8.16602 42.4264 18.2396 52.5 30.666 52.5Z" stroke="#C00018" stroke-width="2" stroke-linecap="round" stroke-linejoin="round"/>
<path d="M18.4502 28.8895L21.5721 23.4379C21.7369 23.1524 21.974 22.9155 22.2596 22.7509C22.5451 22.5863 22.869 22.4999 23.1986 22.5004H27.115C27.4317 22.5009 27.7432 22.4202 28.0197 22.266L30.9002 20.6816C31.0269 20.6135 31.1443 20.5292 31.2494 20.4309L37.5588 14.7285C37.8727 14.443 38.0805 14.0594 38.1482 13.6405C38.2159 13.2216 38.1395 12.7921 37.9314 12.4223L35.4705 8.01367" stroke="#C00018" stroke-width="2" stroke-linecap="round" stroke-linejoin="round"/>
<path d="M16.552 12.4766L13.7911 19.0039C13.6046 19.4458 13.5945 19.9423 13.763 20.3914L16.4583 27.5797C16.569 27.8734 16.7517 28.1346 16.9897 28.3393C17.2276 28.5441 17.5131 28.6858 17.82 28.7516L22.8427 29.832C23.1212 29.8918 23.3825 30.0142 23.6067 30.1901C23.8309 30.3659 24.012 30.5905 24.1364 30.8469L25.027 32.6914C25.1807 33.0083 25.4204 33.2755 25.7189 33.4624C26.0173 33.6494 26.3624 33.7485 26.7145 33.7484H29.9489" stroke="#C00018" stroke-width="2" stroke-linecap="round" stroke-linejoin="round"/>
<path d="M50.6093 40.4255L38.3327 32.874C38.1095 32.7379 37.8605 32.6493 37.6015 32.6138L32.253 31.892C31.8514 31.8376 31.4428 31.9148 31.0888 32.1122C30.7347 32.3095 30.4541 32.6163 30.289 32.9865L27.078 40.1912C26.9288 40.5264 26.8812 40.8981 26.9412 41.2602C27.0012 41.6222 27.1661 41.9587 27.4155 42.2279L32.0421 46.9927C32.2427 47.2084 32.3896 47.4682 32.4711 47.7512C32.5525 48.0342 32.5661 48.3324 32.5109 48.6216L31.7679 52.4748" stroke="#C00018" stroke-width="2" stroke-linecap="round" stroke-linejoin="round"/>
</g>
<defs>
<clipPath id="clip0_5795_104256">
<rect width="60" height="60" fill="white" transform="translate(0.666016)"/>
</clipPath>
</defs>
</svg>
