<svg width="61" height="60" viewBox="0 0 61 60" fill="none" xmlns="http://www.w3.org/2000/svg">
<path d="M46.25 39.7422C43.769 39.7422 41.75 37.7232 41.75 35.2422C41.75 32.7612 43.769 30.7422 46.25 30.7422C49.985 30.7422 50.75 31.8402 50.75 33.4917C50.75 36.2202 48.5675 39.7422 46.25 39.7422Z" fill="#FBECEE"/>
<path d="M46.249 31.5C49.999 31.5 49.999 32.6085 49.999 33.4995C49.999 35.772 48.0595 39 46.249 39C44.1805 39 42.499 37.3185 42.499 35.25C42.499 33.1815 44.1805 31.5 46.249 31.5ZM46.249 30C43.3495 30 40.999 32.3505 40.999 35.25C40.999 38.1495 43.3495 40.5 46.249 40.5C49.1485 40.5 51.499 36.399 51.499 33.4995C51.499 30.6 49.1485 30 46.249 30Z" fill="#C00018"/>
<path d="M14.75 39.7422C12.4325 39.7422 10.25 36.2202 10.25 33.4917C10.25 31.8402 11.015 30.7422 14.75 30.7422C17.231 30.7422 19.25 32.7612 19.25 35.2422C19.25 37.7232 17.231 39.7422 14.75 39.7422Z" fill="#FBECEE"/>
<path d="M14.75 31.5C16.817 31.5 18.5 33.1815 18.5 35.25C18.5 37.3185 16.817 39 14.75 39C12.9395 39 11 35.772 11 33.4995C11 32.6085 11 31.5 14.75 31.5ZM14.75 30C11.8505 30 9.5 30.6 9.5 33.4995C9.5 36.399 11.8505 40.5 14.75 40.5C17.6495 40.5 20 38.1495 20 35.25C20 32.3505 17.6495 30 14.75 30Z" fill="#C00018"/>
<path d="M30.499 57.7368C28.597 57.7368 26.83 56.9478 25.525 55.5123L25.399 55.3743L25.222 55.3113C18.958 53.0808 14.749 47.1228 14.749 40.4868V18.5583C14.749 14.6358 17.9395 11.4453 21.862 11.4453H39.136C43.0585 11.4453 46.249 14.6358 46.249 18.5583V40.4868C46.249 47.1228 42.04 53.0808 35.776 55.3113L35.599 55.3743L35.473 55.5123C34.168 56.9478 32.401 57.7368 30.499 57.7368Z" fill="white"/>
<path d="M39.137 12.2031C42.6455 12.2031 45.5 15.0576 45.5 18.5661V40.4946C45.5 46.8141 41.492 52.4871 35.525 54.6126L35.171 54.7386L34.919 55.0161C33.758 56.2926 32.1875 56.9946 30.5 56.9946C28.8125 56.9946 27.242 56.2911 26.081 55.0146L25.829 54.7371L25.475 54.6111C19.508 52.4871 15.5 46.8141 15.5 40.4946V18.5661C15.5 15.0576 18.3545 12.2031 21.863 12.2031H39.137ZM39.137 10.7031H21.863C17.5205 10.7031 14 14.2236 14 18.5661V40.4946C14 47.6646 18.5825 53.7501 24.971 56.0256C26.3435 57.5316 28.301 58.4946 30.5 58.4946C32.699 58.4946 34.6565 57.5316 36.029 56.0241C42.4175 53.7501 47 47.6646 47 40.4946V18.5661C47 14.2236 43.4795 10.7031 39.137 10.7031Z" fill="#C00018"/>
<path d="M46.251 36.7656V26.7306C46.251 18.2301 39.8175 15.8331 39.753 15.8106L39.2685 15.6381L38.931 16.0281C38.8815 16.0851 33.8715 21.7671 24.393 21.7671C18.174 21.7671 14.7495 24.9201 14.7495 30.6441V36.7656H14.505C13.6605 34.6641 10.251 25.7751 10.251 19.3266C10.251 10.9401 17.265 2.26562 29.001 2.26562C35.106 2.26562 38.3325 5.32562 39.711 7.15112L39.936 7.44812H40.3095C43.0185 7.44812 50.751 9.72812 50.751 19.8546C50.751 24.9261 47.3145 34.5126 46.4805 36.7641H46.251V36.7656Z" fill="#F6D9DC"/>
<path d="M29 3.00391C34.781 3.00391 37.817 5.87791 39.1115 7.59091L39.5615 8.18641H40.3085C42.8225 8.18641 50 10.3284 50 19.8444C50 23.3544 48.2885 29.1474 47 33.0099V26.7189C47 17.6964 40.2905 15.1944 40.0055 15.0924L39.0365 14.7519L38.3645 15.5244C38.1695 15.7479 33.4955 21.0039 24.392 21.0039C17.6915 21.0039 14 24.4224 14 30.6309V33.2649C12.716 29.5869 11 23.8284 11 19.3134C11 11.4069 17.309 3.00391 29 3.00391ZM29 1.50391C16.5095 1.50391 9.5 10.6989 9.5 19.3149C9.5 26.8794 14 37.5039 14 37.5039H15.5C15.5 37.5039 15.5 32.7129 15.5 30.6309C15.5 24.2349 19.838 22.5039 24.392 22.5039C34.3625 22.5039 39.5 16.5039 39.5 16.5039C39.5 16.5039 45.5 18.6489 45.5 26.7189C45.5 29.0094 45.5 37.5039 45.5 37.5039H47C47 37.5039 51.5 25.7919 51.5 19.8429C51.5 9.36841 43.4645 6.68491 40.3085 6.68491C39.5105 5.63191 36.191 1.50391 29 1.50391Z" fill="#C00018"/>
<path d="M38.751 34.4922C38.1542 34.4922 37.5819 34.7292 37.16 35.1512C36.738 35.5732 36.501 36.1455 36.501 36.7422C36.501 37.3389 36.738 37.9112 37.16 38.3332C37.5819 38.7551 38.1542 38.9922 38.751 38.9922C39.3477 38.9922 39.92 38.7551 40.342 38.3332C40.7639 37.9112 41.001 37.3389 41.001 36.7422C41.001 36.1455 40.7639 35.5732 40.342 35.1512C39.92 34.7292 39.3477 34.4922 38.751 34.4922ZM22.251 34.4922C21.6542 34.4922 21.0819 34.7292 20.66 35.1512C20.238 35.5732 20.001 36.1455 20.001 36.7422C20.001 37.3389 20.238 37.9112 20.66 38.3332C21.0819 38.7551 21.6542 38.9922 22.251 38.9922C22.8477 38.9922 23.42 38.7551 23.842 38.3332C24.2639 37.9112 24.501 37.3389 24.501 36.7422C24.501 36.1455 24.2639 35.5732 23.842 35.1512C23.42 34.7292 22.8477 34.4922 22.251 34.4922Z" fill="#C00018"/>
</svg>
