<svg width="61" height="60" viewBox="0 0 61 60" fill="none" xmlns="http://www.w3.org/2000/svg">
<path d="M10.25 56.25V3.75H37.6895L50.75 16.8105V56.25H10.25Z" fill="white"/>
<path d="M37.3789 4.49805L49.9999 17.119V55.4981H10.9999V4.49805H37.3789ZM37.9999 2.99805H9.49994V56.9981H51.4999V16.498L37.9999 2.99805Z" fill="#C00018"/>
<path d="M37.25 17.25V3.75H37.6895L50.75 16.8105V17.25H37.25Z" fill="#FBECEE"/>
<path d="M37.9999 5.11905L49.3789 16.498H37.9999V5.11905ZM37.9999 2.99805H36.4999V17.998H51.4999V16.498L37.9999 2.99805ZM41.7499 25.498H19.2499C18.8359 25.498 18.4999 25.162 18.4999 24.748C18.4999 24.334 18.8359 23.998 19.2499 23.998H41.7499C42.1639 23.998 42.4999 24.334 42.4999 24.748C42.4999 25.162 42.1639 25.498 41.7499 25.498ZM35.7499 29.998H19.2499C18.8359 29.998 18.4999 29.662 18.4999 29.248C18.4999 28.834 18.8359 28.498 19.2499 28.498H35.7499C36.1639 28.498 36.4999 28.834 36.4999 29.248C36.4999 29.662 36.1639 29.998 35.7499 29.998ZM41.7499 34.498H19.2499C18.8359 34.498 18.4999 34.162 18.4999 33.748C18.4999 33.334 18.8359 32.998 19.2499 32.998H41.7499C42.1639 32.998 42.4999 33.334 42.4999 33.748C42.4999 34.162 42.1639 34.498 41.7499 34.498ZM35.7499 38.998H19.2499C18.8359 38.998 18.4999 38.662 18.4999 38.248C18.4999 37.834 18.8359 37.498 19.2499 37.498H35.7499C36.1639 37.498 36.4999 37.834 36.4999 38.248C36.4999 38.662 36.1639 38.998 35.7499 38.998ZM41.7499 43.498H19.2499C18.8359 43.498 18.4999 43.162 18.4999 42.748C18.4999 42.334 18.8359 41.998 19.2499 41.998H41.7499C42.1639 41.998 42.4999 42.334 42.4999 42.748C42.4999 43.162 42.1639 43.498 41.7499 43.498Z" fill="#C00018"/>
</svg>
