<svg width="60" height="60" viewBox="0 0 60 60" fill="none" xmlns="http://www.w3.org/2000/svg">
<g clip-path="url(#clip0_6612_108800)">
<path d="M48.75 7.5H15C14.5027 7.5 14.0258 7.69754 13.6742 8.04918C13.3225 8.40081 13.125 8.87772 13.125 9.375V50.625C13.125 51.1223 13.3225 51.5992 13.6742 51.9508C14.0258 52.3025 14.5027 52.5 15 52.5H48.75C49.2473 52.5 49.7242 52.3025 50.0758 51.9508C50.4275 51.5992 50.625 51.1223 50.625 50.625V9.375C50.625 8.87772 50.4275 8.40081 50.0758 8.04918C49.7242 7.69754 49.2473 7.5 48.75 7.5ZM31.875 33.75C30.3916 33.75 28.9416 33.3101 27.7082 32.486C26.4749 31.6619 25.5136 30.4906 24.9459 29.1201C24.3782 27.7497 24.2297 26.2417 24.5191 24.7868C24.8085 23.332 25.5228 21.9956 26.5717 20.9467C27.6206 19.8978 28.957 19.1835 30.4118 18.8941C31.8667 18.6047 33.3747 18.7532 34.7451 19.3209C36.1156 19.8886 37.2869 20.8499 38.111 22.0832C38.9351 23.3166 39.375 24.7666 39.375 26.25C39.375 28.2391 38.5848 30.1468 37.1783 31.5533C35.7718 32.9598 33.8641 33.75 31.875 33.75Z" fill="#FBECEE"/>
<path d="M31.875 33.75C36.0171 33.75 39.375 30.3921 39.375 26.25C39.375 22.1079 36.0171 18.75 31.875 18.75C27.7329 18.75 24.375 22.1079 24.375 26.25C24.375 30.3921 27.7329 33.75 31.875 33.75Z" stroke="#C00018" stroke-width="2" stroke-linecap="round" stroke-linejoin="round"/>
<path d="M7.5 16.875H13.125" stroke="#C00018" stroke-width="2" stroke-linecap="round" stroke-linejoin="round"/>
<path d="M7.5 30H13.125" stroke="#C00018" stroke-width="2" stroke-linecap="round" stroke-linejoin="round"/>
<path d="M7.5 43.125H13.125" stroke="#C00018" stroke-width="2" stroke-linecap="round" stroke-linejoin="round"/>
<path d="M20.625 39.375C21.9349 37.6285 23.6334 36.2109 25.5861 35.2346C27.5387 34.2583 29.6919 33.75 31.875 33.75C34.0581 33.75 36.2113 34.2583 38.1639 35.2346C40.1166 36.2109 41.8151 37.6285 43.125 39.375" stroke="#C00018" stroke-width="2" stroke-linecap="round" stroke-linejoin="round"/>
<path d="M50.625 50.625V9.375C50.625 8.33947 49.7855 7.5 48.75 7.5L15 7.5C13.9645 7.5 13.125 8.33947 13.125 9.375V50.625C13.125 51.6605 13.9645 52.5 15 52.5H48.75C49.7855 52.5 50.625 51.6605 50.625 50.625Z" stroke="#C00018" stroke-width="2" stroke-linecap="round" stroke-linejoin="round"/>
</g>
<defs>
<clipPath id="clip0_6612_108800">
<rect width="60" height="60" fill="white"/>
</clipPath>
</defs>
</svg>
