<svg width="60" height="60" viewBox="0 0 60 60" fill="none" xmlns="http://www.w3.org/2000/svg">
<g clip-path="url(#clip0_5144_186961)">
<path d="M7.5 46.875C8.49456 46.875 9.44839 46.4799 10.1517 45.7766C10.8549 45.0734 11.25 44.1196 11.25 43.125V15C11.25 14.5027 11.4475 14.0258 11.7992 13.6742C12.1508 13.3225 12.6277 13.125 13.125 13.125H50.625C51.1223 13.125 51.5992 13.3225 51.9508 13.6742C52.3025 14.0258 52.5 14.5027 52.5 15V43.125C52.5 44.1196 52.1049 45.0734 51.4016 45.7766C50.6984 46.4799 49.7446 46.875 48.75 46.875H7.5Z" fill="#FBECEE"/>
<path d="M22.5 26.25H41.25" stroke="#C00018" stroke-width="2" stroke-linecap="round" stroke-linejoin="round"/>
<path d="M22.5 33.75H41.25" stroke="#C00018" stroke-width="2" stroke-linecap="round" stroke-linejoin="round"/>
<path d="M7.5 46.875C8.49456 46.875 9.44839 46.4799 10.1517 45.7766C10.8549 45.0734 11.25 44.1196 11.25 43.125V15C11.25 14.5027 11.4475 14.0258 11.7992 13.6742C12.1508 13.3225 12.6277 13.125 13.125 13.125H50.625C51.1223 13.125 51.5992 13.3225 51.9508 13.6742C52.3025 14.0258 52.5 14.5027 52.5 15V43.125C52.5 44.1196 52.1049 45.0734 51.4016 45.7766C50.6984 46.4799 49.7446 46.875 48.75 46.875H7.5Z" stroke="#C00018" stroke-width="2" stroke-linecap="round" stroke-linejoin="round"/>
<path d="M7.5 46.875C6.50544 46.875 5.55161 46.4799 4.84835 45.7766C4.14509 45.0734 3.75 44.1196 3.75 43.125V20.625" stroke="#C00018" stroke-width="2" stroke-linecap="round" stroke-linejoin="round"/>
</g>
<defs>
<clipPath id="clip0_5144_186961">
<rect width="60" height="60" fill="white"/>
</clipPath>
</defs>
</svg>
