<svg width="60" height="60" viewBox="0 0 60 60" fill="none" xmlns="http://www.w3.org/2000/svg">
<g clip-path="url(#clip0_4387_95486)">
<path d="M11.25 48.75H3.75C3.25272 48.75 2.77581 48.5525 2.42417 48.2008C2.07254 47.8492 1.875 47.3723 1.875 46.875V37.5C1.875 37.0027 2.07254 36.5258 2.42417 36.1742C2.77581 35.8225 3.25272 35.625 3.75 35.625H11.25V48.75Z" fill="#FBECEE"/>
<path d="M47.8126 13.1243C46.8396 13.1249 45.8789 13.3418 45.0001 13.7594C44.9363 12.3519 44.4212 11.0023 43.531 9.91025C42.6408 8.81817 41.4227 8.04159 40.057 7.69536C38.6912 7.34914 37.2503 7.45166 35.9473 7.98776C34.6444 8.52385 33.5485 9.46506 32.8219 10.6722C32.0953 11.8793 31.7764 13.2882 31.9125 14.6906C32.0486 16.0929 32.6325 17.4143 33.5777 18.4591C34.5228 19.504 35.7792 20.2169 37.161 20.4924C38.5427 20.768 39.9764 20.5915 41.2501 19.9891C41.3093 21.2725 41.7439 22.5103 42.5 23.549C43.2562 24.5877 44.3005 25.3816 45.5037 25.8323C46.7068 26.2829 48.0158 26.3705 49.2682 26.0842C50.5207 25.7979 51.6615 25.1502 52.5493 24.2215C53.4371 23.2928 54.0328 22.124 54.2624 20.8599C54.4921 19.5958 54.3457 18.2921 53.8413 17.1105C53.337 15.9289 52.4968 14.9213 51.4252 14.2127C50.3535 13.5041 49.0974 13.1256 47.8126 13.1243Z" fill="#FBECEE"/>
<path d="M47.8125 26.25C51.4369 26.25 54.375 23.3119 54.375 19.6875C54.375 16.0631 51.4369 13.125 47.8125 13.125C44.1881 13.125 41.25 16.0631 41.25 19.6875C41.25 23.3119 44.1881 26.25 47.8125 26.25Z" stroke="#C00018" stroke-width="2" stroke-linecap="round" stroke-linejoin="round"/>
<path d="M11.25 48.75H3.75C3.25272 48.75 2.77581 48.5525 2.42417 48.2008C2.07254 47.8492 1.875 47.3723 1.875 46.875V37.5C1.875 37.0027 2.07254 36.5258 2.42417 36.1742C2.77581 35.8225 3.25272 35.625 3.75 35.625H11.25" stroke="#C00018" stroke-width="2" stroke-linecap="round" stroke-linejoin="round"/>
<path d="M26.25 37.5H33.75L49.4531 33.8883C50.0305 33.7301 50.6365 33.7071 51.2241 33.8213C51.8118 33.9354 52.3652 34.1835 52.8413 34.5462C53.3175 34.909 53.7036 35.3767 53.9696 35.913C54.2356 36.4493 54.3743 37.0397 54.375 37.6383C54.3753 38.3611 54.1741 39.0696 53.7941 39.6844C53.414 40.2992 52.8701 40.7959 52.2234 41.1188L43.125 45L28.125 48.75H11.25V35.625L17.1094 29.7656C17.6331 29.2437 18.2546 28.8302 18.9382 28.5487C19.6219 28.2672 20.3544 28.1232 21.0938 28.125H32.8125C34.0557 28.125 35.248 28.6189 36.1271 29.498C37.0061 30.377 37.5 31.5693 37.5 32.8125C37.5 34.0557 37.0061 35.248 36.1271 36.1271C35.248 37.0062 34.0557 37.5 32.8125 37.5H26.25Z" stroke="#C00018" stroke-width="2" stroke-linecap="round" stroke-linejoin="round"/>
<path d="M41.2501 19.9891C39.9764 20.5915 38.5427 20.768 37.161 20.4924C35.7792 20.2169 34.5228 19.504 33.5777 18.4591C32.6325 17.4142 32.0486 16.0929 31.9125 14.6906C31.7764 13.2882 32.0953 11.8793 32.8219 10.6722C33.5485 9.46506 34.6444 8.52385 35.9473 7.98776C37.2503 7.45166 38.6912 7.34914 40.057 7.69536C41.4227 8.04159 42.6408 8.81817 43.531 9.91025C44.4212 11.0023 44.9363 12.3519 45.0001 13.7594" stroke="#C00018" stroke-width="2" stroke-linecap="round" stroke-linejoin="round"/>
</g>
<defs>
<clipPath id="clip0_4387_95486">
<rect width="60" height="60" fill="white"/>
</clipPath>
</defs>
</svg>
