<svg width="61" height="60" viewBox="0 0 61 60" fill="none" xmlns="http://www.w3.org/2000/svg">
<g clip-path="url(#clip0_2506_61466)">
<path d="M36.2917 37.5H45.6667C48.1531 37.5 50.5377 36.5123 52.2958 34.7541C54.054 32.996 55.0417 30.6114 55.0417 28.125C55.0417 25.6386 54.054 23.254 52.2958 21.4959C50.5377 19.7377 48.1531 18.75 45.6667 18.75H36.2917V37.5Z" fill="#FBECEE"/>
<path d="M36.2917 18.75V47.032C36.2919 47.3404 36.3681 47.644 36.5137 47.9158C36.6592 48.1877 36.8695 48.4195 37.1261 48.5906L39.7042 50.3086C39.9543 50.4753 40.2407 50.5795 40.5395 50.6123C40.8383 50.6451 41.1405 50.6057 41.4209 50.4972C41.7012 50.3888 41.9513 50.2145 42.1502 49.9892C42.349 49.7638 42.4908 49.494 42.5636 49.2023L45.6667 37.5" stroke="#AA0015" stroke-width="2" stroke-linecap="round" stroke-linejoin="round"/>
<path d="M8.16669 46.8751C8.16677 47.2322 8.26882 47.5819 8.46082 47.8829C8.65283 48.184 8.92681 48.424 9.25055 48.5746C9.57428 48.7253 9.93431 48.7804 10.2883 48.7334C10.6423 48.6865 10.9755 48.5394 11.2487 48.3095C23.53 38.0064 36.2917 37.5001 36.2917 37.5001H45.6667C48.1531 37.5001 50.5377 36.5124 52.2958 34.7543C54.054 32.9961 55.0417 30.6116 55.0417 28.1251C55.0417 25.6387 54.054 23.2542 52.2958 21.496C50.5377 19.7379 48.1531 18.7501 45.6667 18.7501H36.2917C36.2917 18.7501 23.53 18.2439 11.2487 7.94312C10.9756 7.71337 10.6426 7.56634 10.2889 7.5193C9.9351 7.47225 9.57526 7.52714 9.25161 7.67752C8.92796 7.8279 8.65395 8.06752 8.46177 8.36824C8.26959 8.66895 8.16722 9.01827 8.16669 9.37515V46.8751Z" stroke="#AA0015" stroke-width="2" stroke-linecap="round" stroke-linejoin="round"/>
</g>
<defs>
<clipPath id="clip0_2506_61466">
<rect width="60" height="60" fill="white" transform="translate(0.666687)"/>
</clipPath>
</defs>
</svg>
