<svg width="24" height="21" viewBox="0 0 24 21" fill="none" xmlns="http://www.w3.org/2000/svg">
<path d="M2.06836 20.0671V4.96363L6.82698 3.10156V20.0671H2.06836Z" fill="white"/>
<path d="M21.9316 19.8622V7.70577L16.9661 6.20703V19.8622H21.9316Z" fill="white"/>
<path d="M23.5862 19.8611H22.2455V7.98524C22.2458 7.90448 22.2224 7.82541 22.1783 7.75776C22.1342 7.69012 22.0713 7.63686 21.9972 7.60455L17.2345 5.53559C17.1714 5.50806 17.1024 5.4967 17.0339 5.50253C16.9653 5.50837 16.8992 5.53123 16.8417 5.56903C16.7842 5.60683 16.737 5.65838 16.7044 5.71901C16.6719 5.77965 16.6549 5.84745 16.6552 5.91628V19.8611H7.34483V3.0818C7.34448 3.01364 7.32729 2.94663 7.29481 2.88671C7.26232 2.8268 7.21554 2.77583 7.15862 2.73835C7.10139 2.69988 7.03545 2.67632 6.9668 2.66981C6.89814 2.66331 6.82896 2.67407 6.76552 2.70111L1.94483 4.77007C1.87081 4.80238 1.80786 4.85563 1.76374 4.92328C1.71963 4.99092 1.69627 5.07 1.69655 5.15076V19.8611H0.413793C0.304048 19.8611 0.198798 19.9047 0.121197 19.9823C0.0435959 20.0599 0 20.1652 0 20.2749C0 20.3846 0.0435959 20.4899 0.121197 20.5675C0.198798 20.6451 0.304048 20.6887 0.413793 20.6887H23.5862C23.696 20.6887 23.8012 20.6451 23.8788 20.5675C23.9564 20.4899 24 20.3846 24 20.2749C24 20.1652 23.9564 20.0599 23.8788 19.9823C23.8012 19.9047 23.696 19.8611 23.5862 19.8611ZM2.52414 19.8611V5.42387L6.51724 3.72318V19.8611H2.52414ZM17.4828 19.8611V6.54524L21.4179 8.2749V19.8611H17.4828Z" fill="#C00018"/>
<path d="M20.0145 9.61328H18.7732C18.6634 9.61328 18.5582 9.65688 18.4806 9.73448C18.403 9.81208 18.3594 9.91733 18.3594 10.0271C18.3594 10.1368 18.403 10.2421 18.4806 10.3197C18.5582 10.3973 18.6634 10.4409 18.7732 10.4409H20.0145C20.1243 10.4409 20.2295 10.3973 20.3071 10.3197C20.3847 10.2421 20.4283 10.1368 20.4283 10.0271C20.4283 9.91733 20.3847 9.81208 20.3071 9.73448C20.2295 9.65688 20.1243 9.61328 20.0145 9.61328Z" fill="#C00018"/>
<path d="M20.0145 12.3008H18.7732C18.6634 12.3008 18.5582 12.3444 18.4806 12.422C18.403 12.4996 18.3594 12.6048 18.3594 12.7146C18.3594 12.8243 18.403 12.9296 18.4806 13.0072C18.5582 13.0848 18.6634 13.1284 18.7732 13.1284H20.0145C20.1243 13.1284 20.2295 13.0848 20.3071 13.0072C20.3847 12.9296 20.4283 12.8243 20.4283 12.7146C20.4283 12.6048 20.3847 12.4996 20.3071 12.422C20.2295 12.3444 20.1243 12.3008 20.0145 12.3008Z" fill="#C00018"/>
<path d="M20.0145 14.9961H18.7732C18.6634 14.9961 18.5582 15.0397 18.4806 15.1173C18.403 15.1949 18.3594 15.3001 18.3594 15.4099C18.3594 15.5196 18.403 15.6249 18.4806 15.7025C18.5582 15.7801 18.6634 15.8237 18.7732 15.8237H20.0145C20.1243 15.8237 20.2295 15.7801 20.3071 15.7025C20.3847 15.6249 20.4283 15.5196 20.4283 15.4099C20.4283 15.3001 20.3847 15.1949 20.3071 15.1173C20.2295 15.0397 20.1243 14.9961 20.0145 14.9961Z" fill="#C00018"/>
<path d="M20.0145 17.6914H18.7732C18.6634 17.6914 18.5582 17.735 18.4806 17.8126C18.403 17.8902 18.3594 17.9955 18.3594 18.1052C18.3594 18.2149 18.403 18.3202 18.4806 18.3978C18.5582 18.4754 18.6634 18.519 18.7732 18.519H20.0145C20.1243 18.519 20.2295 18.4754 20.3071 18.3978C20.3847 18.3202 20.4283 18.2149 20.4283 18.1052C20.4283 17.9955 20.3847 17.8902 20.3071 17.8126C20.2295 17.735 20.1243 17.6914 20.0145 17.6914Z" fill="#C00018"/>
<path d="M4.96572 9.58984H3.72434C3.6146 9.58984 3.50935 9.63344 3.43174 9.71104C3.35414 9.78864 3.31055 9.89389 3.31055 10.0036C3.31055 10.1134 3.35414 10.2186 3.43174 10.2962C3.50935 10.3738 3.6146 10.4174 3.72434 10.4174H4.96572C5.07546 10.4174 5.18071 10.3738 5.25832 10.2962C5.33592 10.2186 5.37951 10.1134 5.37951 10.0036C5.37951 9.89389 5.33592 9.78864 5.25832 9.71104C5.18071 9.63344 5.07546 9.58984 4.96572 9.58984Z" fill="#C00018"/>
<path d="M4.96572 12.2812H3.72434C3.6146 12.2812 3.50935 12.3248 3.43174 12.4024C3.35414 12.48 3.31055 12.5853 3.31055 12.695C3.31055 12.8048 3.35414 12.91 3.43174 12.9876C3.50935 13.0652 3.6146 13.1088 3.72434 13.1088H4.96572C5.07546 13.1088 5.18071 13.0652 5.25832 12.9876C5.33592 12.91 5.37951 12.8048 5.37951 12.695C5.37951 12.5853 5.33592 12.48 5.25832 12.4024C5.18071 12.3248 5.07546 12.2812 4.96572 12.2812Z" fill="#C00018"/>
<path d="M4.96572 6.89844H3.72434C3.6146 6.89844 3.50935 6.94203 3.43174 7.01963C3.35414 7.09724 3.31055 7.20249 3.31055 7.31223C3.31055 7.42198 3.35414 7.52723 3.43174 7.60483C3.50935 7.68243 3.6146 7.72602 3.72434 7.72602H4.96572C5.07546 7.72602 5.18071 7.68243 5.25832 7.60483C5.33592 7.52723 5.37951 7.42198 5.37951 7.31223C5.37951 7.20249 5.33592 7.09724 5.25832 7.01963C5.18071 6.94203 5.07546 6.89844 4.96572 6.89844Z" fill="#C00018"/>
<path d="M4.96572 14.9766H3.72434C3.6146 14.9766 3.50935 15.0202 3.43174 15.0978C3.35414 15.1754 3.31055 15.2806 3.31055 15.3904C3.31055 15.5001 3.35414 15.6054 3.43174 15.683C3.50935 15.7606 3.6146 15.8041 3.72434 15.8041H4.96572C5.07546 15.8041 5.18071 15.7606 5.25832 15.683C5.33592 15.6054 5.37951 15.5001 5.37951 15.3904C5.37951 15.2806 5.33592 15.1754 5.25832 15.0978C5.18071 15.0202 5.07546 14.9766 4.96572 14.9766Z" fill="#C00018"/>
<path d="M4.96572 17.6641H3.72434C3.6146 17.6641 3.50935 17.7077 3.43174 17.7853C3.35414 17.8629 3.31055 17.9681 3.31055 18.0779C3.31055 18.1876 3.35414 18.2929 3.43174 18.3705C3.50935 18.4481 3.6146 18.4916 3.72434 18.4916H4.96572C5.07546 18.4916 5.18071 18.4481 5.25832 18.3705C5.33592 18.2929 5.37951 18.1876 5.37951 18.0779C5.37951 17.9681 5.33592 17.8629 5.25832 17.7853C5.18071 17.7077 5.07546 17.6641 4.96572 17.6641Z" fill="#C00018"/>
<rect x="7.03516" y="0.414062" width="9.93103" height="19.8621" fill="#FBECEE"/>
<rect x="9.93164" y="14.0703" width="4.13793" height="6.2069" fill="white"/>
<path d="M17.0693 0H6.93137C6.82163 0 6.71638 0.043596 6.63877 0.121197C6.56117 0.198799 6.51758 0.304048 6.51758 0.413793V20.2759C6.51758 20.3856 6.56117 20.4909 6.63877 20.5685C6.71638 20.6461 6.82163 20.6897 6.93137 20.6897H17.0693C17.179 20.6897 17.2843 20.6461 17.3619 20.5685C17.4395 20.4909 17.4831 20.3856 17.4831 20.2759V0.413793C17.4831 0.304048 17.4395 0.198799 17.3619 0.121197C17.2843 0.043596 17.179 0 17.0693 0ZM10.3452 19.8621V14.4579H13.6555V19.8621H10.3452ZM16.6596 19.8621H14.4831V14.0441C14.4831 13.9344 14.4395 13.8291 14.3619 13.7515C14.2843 13.6739 14.179 13.6303 14.0693 13.6303H9.93137C9.82163 13.6303 9.71638 13.6739 9.63877 13.7515C9.56117 13.8291 9.51758 13.9344 9.51758 14.0441V19.8621H7.34516V0.827586H16.6555L16.6596 19.8621Z" fill="#C00018"/>
</svg>
