<svg width="400" height="400" viewBox="0 0 400 400" fill="none" xmlns="http://www.w3.org/2000/svg">
<mask id="path-1-inside-1_1_2" fill="white">
<path d="M0 0H400V400H0V0Z"/>
</mask>
<path d="M0 0H400V400H0V0Z" fill="white"/>
<path d="M400 400V401H401V400H400ZM399 0V400H401V0H399ZM400 399H0V401H400V399Z" fill="#999999" fill-opacity="0.4" mask="url(#path-1-inside-1_1_2)"/>
<path opacity="0.6" d="M85 44H399V172H85V44Z" fill="#F5F5F5"/>
<path d="M82.464 123H76.768L66.4 102.776H55.456V123H50.592V77.432H68.064C72.0747 77.432 75.3173 78.584 77.792 80.888C80.3093 83.1493 81.568 86.2213 81.568 90.104C81.568 93.3467 80.672 96.0347 78.88 98.168C77.088 100.301 74.6773 101.688 71.648 102.328L82.464 123ZM76.704 90.168C76.704 87.48 75.872 85.4107 74.208 83.96C72.544 82.5093 70.3467 81.784 67.616 81.784H55.456V98.488H67.616C70.3893 98.488 72.5867 97.784 74.208 96.376C75.872 94.9253 76.704 92.856 76.704 90.168ZM115.248 90.168C115.248 93.112 114.288 96.5253 112.368 100.408L101.168 123H96.368L106.608 102.52C105.2 103.16 103.579 103.48 101.744 103.48C98.2453 103.48 95.408 102.285 93.232 99.896C91.056 97.464 89.968 94.3493 89.968 90.552C89.968 86.6267 91.12 83.4053 93.424 80.888C95.728 78.328 98.7787 77.048 102.576 77.048C106.416 77.048 109.488 78.2427 111.792 80.632C114.096 83.0213 115.248 86.2 115.248 90.168ZM110.64 90.36C110.64 87.5867 109.893 85.368 108.4 83.704C106.949 81.9973 105.008 81.144 102.576 81.144C100.144 81.144 98.2027 81.9973 96.752 83.704C95.3013 85.368 94.576 87.5867 94.576 90.36C94.576 93.0053 95.28 95.2027 96.688 96.952C98.096 98.7013 100.059 99.576 102.576 99.576C105.008 99.576 106.949 98.744 108.4 97.08C109.893 95.416 110.64 93.176 110.64 90.36ZM150.286 115.768H144.718V123H140.174V115.768H121.998V111.608L138.446 77.432H143.374L126.926 111.608H140.174V98.68H144.718V111.608H150.286V115.768Z" fill="black"/>
<path d="M0 316H20V400H0V316Z" fill="#C00018"/>
<path d="M45.1719 153V141.547H49.4688C50.3438 141.547 51.0443 141.664 51.5703 141.898C52.1016 142.128 52.5156 142.484 52.8125 142.969C53.1146 143.448 53.2656 143.951 53.2656 144.477C53.2656 144.966 53.1328 145.427 52.8672 145.859C52.6016 146.292 52.2005 146.641 51.6641 146.906C52.3568 147.109 52.888 147.456 53.2578 147.945C53.6328 148.435 53.8203 149.013 53.8203 149.68C53.8203 150.216 53.7057 150.716 53.4766 151.18C53.2526 151.638 52.974 151.992 52.6406 152.242C52.3073 152.492 51.888 152.682 51.3828 152.812C50.8828 152.938 50.2682 153 49.5391 153H45.1719ZM46.6875 146.359H49.1641C49.8359 146.359 50.3177 146.315 50.6094 146.227C50.9948 146.112 51.2839 145.922 51.4766 145.656C51.6745 145.391 51.7734 145.057 51.7734 144.656C51.7734 144.276 51.6823 143.943 51.5 143.656C51.3177 143.365 51.0573 143.167 50.7188 143.062C50.3802 142.953 49.7995 142.898 48.9766 142.898H46.6875V146.359ZM46.6875 151.648H49.5391C50.0286 151.648 50.3724 151.63 50.5703 151.594C50.9193 151.531 51.2109 151.427 51.4453 151.281C51.6797 151.135 51.8724 150.924 52.0234 150.648C52.1745 150.367 52.25 150.044 52.25 149.68C52.25 149.253 52.1406 148.883 51.9219 148.57C51.7031 148.253 51.3984 148.031 51.0078 147.906C50.6224 147.776 50.0651 147.711 49.3359 147.711H46.6875V151.648ZM55.7344 143.164V141.547H57.1406V143.164H55.7344ZM55.7344 153V144.703H57.1406V153H55.7344ZM59.2578 153V141.547H60.6641V153H59.2578ZM62.8203 153V141.547H64.2266V153H62.8203ZM66.4219 143.164V141.547H67.8281V143.164H66.4219ZM66.4219 153V144.703H67.8281V153H66.4219ZM69.4531 148.852C69.4531 147.315 69.8802 146.177 70.7344 145.438C71.4479 144.823 72.3177 144.516 73.3438 144.516C74.4844 144.516 75.4167 144.891 76.1406 145.641C76.8646 146.385 77.2266 147.417 77.2266 148.734C77.2266 149.802 77.0651 150.643 76.7422 151.258C76.4245 151.867 75.9583 152.341 75.3438 152.68C74.7344 153.018 74.0677 153.188 73.3438 153.188C72.1823 153.188 71.2422 152.815 70.5234 152.07C69.8099 151.326 69.4531 150.253 69.4531 148.852ZM70.8984 148.852C70.8984 149.914 71.1302 150.711 71.5938 151.242C72.0573 151.768 72.6406 152.031 73.3438 152.031C74.0417 152.031 74.6224 151.766 75.0859 151.234C75.5495 150.703 75.7812 149.893 75.7812 148.805C75.7812 147.779 75.5469 147.003 75.0781 146.477C74.6146 145.945 74.0365 145.68 73.3438 145.68C72.6406 145.68 72.0573 145.943 71.5938 146.469C71.1302 146.995 70.8984 147.789 70.8984 148.852ZM78.8828 153V144.703H80.1484V145.883C80.7578 144.971 81.638 144.516 82.7891 144.516C83.2891 144.516 83.7474 144.607 84.1641 144.789C84.5859 144.966 84.901 145.201 85.1094 145.492C85.3177 145.784 85.4635 146.13 85.5469 146.531C85.599 146.792 85.625 147.247 85.625 147.898V153H84.2188V147.953C84.2188 147.38 84.1641 146.953 84.0547 146.672C83.9453 146.385 83.75 146.159 83.4688 145.992C83.1927 145.82 82.8672 145.734 82.4922 145.734C81.8932 145.734 81.375 145.924 80.9375 146.305C80.5052 146.685 80.2891 147.406 80.2891 148.469V153H78.8828Z" fill="#E6001C"/>
<path d="M43.9824 31L47.2812 22.4102H48.5059L52.0215 31H50.7266L49.7246 28.3984H46.1328L45.1895 31H43.9824ZM46.4609 27.4727H49.373L48.4766 25.0938C48.2031 24.3711 48 23.7773 47.8672 23.3125C47.7578 23.8633 47.6035 24.4102 47.4043 24.9531L46.4609 27.4727ZM52.373 29.1426L53.416 28.9785C53.4746 29.3965 53.6367 29.7168 53.9023 29.9395C54.1719 30.1621 54.5469 30.2734 55.0273 30.2734C55.5117 30.2734 55.8711 30.1758 56.1055 29.9805C56.3398 29.7812 56.457 29.5488 56.457 29.2832C56.457 29.0449 56.3535 28.8574 56.1465 28.7207C56.002 28.627 55.6426 28.5078 55.0684 28.3633C54.2949 28.168 53.7578 28 53.457 27.8594C53.1602 27.7148 52.9336 27.5176 52.7773 27.2676C52.625 27.0137 52.5488 26.7344 52.5488 26.4297C52.5488 26.1523 52.6113 25.8965 52.7363 25.6621C52.8652 25.4238 53.0391 25.2266 53.2578 25.0703C53.4219 24.9492 53.6445 24.8477 53.9258 24.7656C54.2109 24.6797 54.5156 24.6367 54.8398 24.6367C55.3281 24.6367 55.7559 24.707 56.123 24.8477C56.4941 24.9883 56.7676 25.1797 56.9434 25.4219C57.1191 25.6602 57.2402 25.9805 57.3066 26.3828L56.2754 26.5234C56.2285 26.2031 56.0918 25.9531 55.8652 25.7734C55.6426 25.5938 55.3262 25.5039 54.916 25.5039C54.4316 25.5039 54.0859 25.584 53.8789 25.7441C53.6719 25.9043 53.5684 26.0918 53.5684 26.3066C53.5684 26.4434 53.6113 26.5664 53.6973 26.6758C53.7832 26.7891 53.918 26.8828 54.1016 26.957C54.207 26.9961 54.5176 27.0859 55.0332 27.2266C55.7793 27.4258 56.2988 27.5898 56.5918 27.7188C56.8887 27.8438 57.1211 28.0273 57.2891 28.2695C57.457 28.5117 57.541 28.8125 57.541 29.1719C57.541 29.5234 57.4375 29.8555 57.2305 30.168C57.0273 30.4766 56.7324 30.7168 56.3457 30.8887C55.959 31.0566 55.5215 31.1406 55.0332 31.1406C54.2246 31.1406 53.6074 30.9727 53.1816 30.6367C52.7598 30.3008 52.4902 29.8027 52.373 29.1426ZM58.373 29.1426L59.416 28.9785C59.4746 29.3965 59.6367 29.7168 59.9023 29.9395C60.1719 30.1621 60.5469 30.2734 61.0273 30.2734C61.5117 30.2734 61.8711 30.1758 62.1055 29.9805C62.3398 29.7812 62.457 29.5488 62.457 29.2832C62.457 29.0449 62.3535 28.8574 62.1465 28.7207C62.002 28.627 61.6426 28.5078 61.0684 28.3633C60.2949 28.168 59.7578 28 59.457 27.8594C59.1602 27.7148 58.9336 27.5176 58.7773 27.2676C58.625 27.0137 58.5488 26.7344 58.5488 26.4297C58.5488 26.1523 58.6113 25.8965 58.7363 25.6621C58.8652 25.4238 59.0391 25.2266 59.2578 25.0703C59.4219 24.9492 59.6445 24.8477 59.9258 24.7656C60.2109 24.6797 60.5156 24.6367 60.8398 24.6367C61.3281 24.6367 61.7559 24.707 62.123 24.8477C62.4941 24.9883 62.7676 25.1797 62.9434 25.4219C63.1191 25.6602 63.2402 25.9805 63.3066 26.3828L62.2754 26.5234C62.2285 26.2031 62.0918 25.9531 61.8652 25.7734C61.6426 25.5938 61.3262 25.5039 60.916 25.5039C60.4316 25.5039 60.0859 25.584 59.8789 25.7441C59.6719 25.9043 59.5684 26.0918 59.5684 26.3066C59.5684 26.4434 59.6113 26.5664 59.6973 26.6758C59.7832 26.7891 59.918 26.8828 60.1016 26.957C60.207 26.9961 60.5176 27.0859 61.0332 27.2266C61.7793 27.4258 62.2988 27.5898 62.5918 27.7188C62.8887 27.8438 63.1211 28.0273 63.2891 28.2695C63.457 28.5117 63.541 28.8125 63.541 29.1719C63.541 29.5234 63.4375 29.8555 63.2305 30.168C63.0273 30.4766 62.7324 30.7168 62.3457 30.8887C61.959 31.0566 61.5215 31.1406 61.0332 31.1406C60.2246 31.1406 59.6074 30.9727 59.1816 30.6367C58.7598 30.3008 58.4902 29.8027 58.373 29.1426ZM69.0547 28.9961L70.1445 29.1309C69.9727 29.7676 69.6543 30.2617 69.1895 30.6133C68.7246 30.9648 68.1309 31.1406 67.4082 31.1406C66.498 31.1406 65.7754 30.8613 65.2402 30.3027C64.709 29.7402 64.4434 28.9531 64.4434 27.9414C64.4434 26.8945 64.7129 26.082 65.252 25.5039C65.791 24.9258 66.4902 24.6367 67.3496 24.6367C68.1816 24.6367 68.8613 24.9199 69.3887 25.4863C69.916 26.0527 70.1797 26.8496 70.1797 27.877C70.1797 27.9395 70.1777 28.0332 70.1738 28.1582H65.5332C65.5723 28.8418 65.7656 29.3652 66.1133 29.7285C66.4609 30.0918 66.8945 30.2734 67.4141 30.2734C67.8008 30.2734 68.1309 30.1719 68.4043 29.9688C68.6777 29.7656 68.8945 29.4414 69.0547 28.9961ZM65.5918 27.291H69.0664C69.0195 26.7676 68.8867 26.375 68.668 26.1133C68.332 25.707 67.8965 25.5039 67.3613 25.5039C66.877 25.5039 66.4688 25.666 66.1367 25.9902C65.8086 26.3145 65.627 26.748 65.5918 27.291ZM73.7773 30.0566L73.9297 30.9883C73.6328 31.0508 73.3672 31.082 73.1328 31.082C72.75 31.082 72.4531 31.0215 72.2422 30.9004C72.0312 30.7793 71.8828 30.6211 71.7969 30.4258C71.7109 30.2266 71.668 29.8105 71.668 29.1777V25.5977H70.8945V24.7773H71.668V23.2363L72.7168 22.6035V24.7773H73.7773V25.5977H72.7168V29.2363C72.7168 29.5371 72.7344 29.7305 72.7695 29.8164C72.8086 29.9023 72.8691 29.9707 72.9512 30.0215C73.0371 30.0723 73.1582 30.0977 73.3145 30.0977C73.4316 30.0977 73.5859 30.084 73.7773 30.0566ZM74.3926 29.1426L75.4355 28.9785C75.4941 29.3965 75.6562 29.7168 75.9219 29.9395C76.1914 30.1621 76.5664 30.2734 77.0469 30.2734C77.5312 30.2734 77.8906 30.1758 78.125 29.9805C78.3594 29.7812 78.4766 29.5488 78.4766 29.2832C78.4766 29.0449 78.373 28.8574 78.166 28.7207C78.0215 28.627 77.6621 28.5078 77.0879 28.3633C76.3145 28.168 75.7773 28 75.4766 27.8594C75.1797 27.7148 74.9531 27.5176 74.7969 27.2676C74.6445 27.0137 74.5684 26.7344 74.5684 26.4297C74.5684 26.1523 74.6309 25.8965 74.7559 25.6621C74.8848 25.4238 75.0586 25.2266 75.2773 25.0703C75.4414 24.9492 75.6641 24.8477 75.9453 24.7656C76.2305 24.6797 76.5352 24.6367 76.8594 24.6367C77.3477 24.6367 77.7754 24.707 78.1426 24.8477C78.5137 24.9883 78.7871 25.1797 78.9629 25.4219C79.1387 25.6602 79.2598 25.9805 79.3262 26.3828L78.2949 26.5234C78.248 26.2031 78.1113 25.9531 77.8848 25.7734C77.6621 25.5938 77.3457 25.5039 76.9355 25.5039C76.4512 25.5039 76.1055 25.584 75.8984 25.7441C75.6914 25.9043 75.5879 26.0918 75.5879 26.3066C75.5879 26.4434 75.6309 26.5664 75.7168 26.6758C75.8027 26.7891 75.9375 26.8828 76.1211 26.957C76.2266 26.9961 76.5371 27.0859 77.0527 27.2266C77.7988 27.4258 78.3184 27.5898 78.6113 27.7188C78.9082 27.8438 79.1406 28.0273 79.3086 28.2695C79.4766 28.5117 79.5605 28.8125 79.5605 29.1719C79.5605 29.5234 79.457 29.8555 79.25 30.168C79.0469 30.4766 78.752 30.7168 78.3652 30.8887C77.9785 31.0566 77.541 31.1406 77.0527 31.1406C76.2441 31.1406 75.627 30.9727 75.2012 30.6367C74.7793 30.3008 74.5098 29.8027 74.3926 29.1426ZM88.2324 31V30.0859C87.748 30.7891 87.0898 31.1406 86.2578 31.1406C85.8906 31.1406 85.5469 31.0703 85.2266 30.9297C84.9102 30.7891 84.6738 30.6133 84.5176 30.4023C84.3652 30.1875 84.2578 29.9258 84.1953 29.6172C84.1523 29.4102 84.1309 29.082 84.1309 28.6328V24.7773H85.1855V28.2285C85.1855 28.7793 85.207 29.1504 85.25 29.3418C85.3164 29.6191 85.457 29.8379 85.6719 29.998C85.8867 30.1543 86.1523 30.2324 86.4688 30.2324C86.7852 30.2324 87.082 30.1523 87.3594 29.9922C87.6367 29.8281 87.832 29.6074 87.9453 29.3301C88.0625 29.0488 88.1211 28.6426 88.1211 28.1113V24.7773H89.1758V31H88.2324ZM90.834 31V24.7773H91.7832V25.6621C92.2402 24.9785 92.9004 24.6367 93.7637 24.6367C94.1387 24.6367 94.4824 24.7051 94.7949 24.8418C95.1113 24.9746 95.3477 25.1504 95.5039 25.3691C95.6602 25.5879 95.7695 25.8477 95.832 26.1484C95.8711 26.3438 95.8906 26.6855 95.8906 27.1738V31H94.8359V27.2148C94.8359 26.7852 94.7949 26.4648 94.7129 26.2539C94.6309 26.0391 94.4844 25.8691 94.2734 25.7441C94.0664 25.6152 93.8223 25.5508 93.541 25.5508C93.0918 25.5508 92.7031 25.6934 92.375 25.9785C92.0508 26.2637 91.8887 26.8047 91.8887 27.6016V31H90.834ZM101.551 31V30.2148C101.156 30.832 100.576 31.1406 99.8105 31.1406C99.3145 31.1406 98.8574 31.0039 98.4395 30.7305C98.0254 30.457 97.7031 30.0762 97.4727 29.5879C97.2461 29.0957 97.1328 28.5312 97.1328 27.8945C97.1328 27.2734 97.2363 26.7109 97.4434 26.207C97.6504 25.6992 97.9609 25.3105 98.375 25.041C98.7891 24.7715 99.252 24.6367 99.7637 24.6367C100.139 24.6367 100.473 24.7168 100.766 24.877C101.059 25.0332 101.297 25.2383 101.48 25.4922V22.4102H102.529V31H101.551ZM98.2168 27.8945C98.2168 28.6914 98.3848 29.2871 98.7207 29.6816C99.0566 30.0762 99.4531 30.2734 99.9102 30.2734C100.371 30.2734 100.762 30.0859 101.082 29.7109C101.406 29.332 101.568 28.7559 101.568 27.9824C101.568 27.1309 101.404 26.5059 101.076 26.1074C100.748 25.709 100.344 25.5098 99.8633 25.5098C99.3945 25.5098 99.002 25.7012 98.6855 26.084C98.373 26.4668 98.2168 27.0703 98.2168 27.8945ZM108.453 28.9961L109.543 29.1309C109.371 29.7676 109.053 30.2617 108.588 30.6133C108.123 30.9648 107.529 31.1406 106.807 31.1406C105.896 31.1406 105.174 30.8613 104.639 30.3027C104.107 29.7402 103.842 28.9531 103.842 27.9414C103.842 26.8945 104.111 26.082 104.65 25.5039C105.189 24.9258 105.889 24.6367 106.748 24.6367C107.58 24.6367 108.26 24.9199 108.787 25.4863C109.314 26.0527 109.578 26.8496 109.578 27.877C109.578 27.9395 109.576 28.0332 109.572 28.1582H104.932C104.971 28.8418 105.164 29.3652 105.512 29.7285C105.859 30.0918 106.293 30.2734 106.812 30.2734C107.199 30.2734 107.529 30.1719 107.803 29.9688C108.076 29.7656 108.293 29.4414 108.453 28.9961ZM104.99 27.291H108.465C108.418 26.7676 108.285 26.375 108.066 26.1133C107.73 25.707 107.295 25.5039 106.76 25.5039C106.275 25.5039 105.867 25.666 105.535 25.9902C105.207 26.3145 105.025 26.748 104.99 27.291ZM110.861 31V24.7773H111.811V25.7207C112.053 25.2793 112.275 24.9883 112.479 24.8477C112.686 24.707 112.912 24.6367 113.158 24.6367C113.514 24.6367 113.875 24.75 114.242 24.9766L113.879 25.9551C113.621 25.8027 113.363 25.7266 113.105 25.7266C112.875 25.7266 112.668 25.7969 112.484 25.9375C112.301 26.0742 112.17 26.2656 112.092 26.5117C111.975 26.8867 111.916 27.2969 111.916 27.7422V31H110.861ZM118.209 31V24.7773H119.152V25.6504C119.348 25.3457 119.607 25.1016 119.932 24.918C120.256 24.7305 120.625 24.6367 121.039 24.6367C121.5 24.6367 121.877 24.7324 122.17 24.9238C122.467 25.1152 122.676 25.3828 122.797 25.7266C123.289 25 123.93 24.6367 124.719 24.6367C125.336 24.6367 125.811 24.8086 126.143 25.1523C126.475 25.4922 126.641 26.0176 126.641 26.7285V31H125.592V27.0801C125.592 26.6582 125.557 26.3555 125.486 26.1719C125.42 25.9844 125.297 25.834 125.117 25.7207C124.938 25.6074 124.727 25.5508 124.484 25.5508C124.047 25.5508 123.684 25.6973 123.395 25.9902C123.105 26.2793 122.961 26.7441 122.961 27.3848V31H121.906V26.957C121.906 26.4883 121.82 26.1367 121.648 25.9023C121.477 25.668 121.195 25.5508 120.805 25.5508C120.508 25.5508 120.232 25.6289 119.979 25.7852C119.729 25.9414 119.547 26.1699 119.434 26.4707C119.32 26.7715 119.264 27.2051 119.264 27.7715V31H118.209ZM132.266 30.2324C131.875 30.5645 131.498 30.7988 131.135 30.9355C130.775 31.0723 130.389 31.1406 129.975 31.1406C129.291 31.1406 128.766 30.9746 128.398 30.6426C128.031 30.3066 127.848 29.8789 127.848 29.3594C127.848 29.0547 127.916 28.7773 128.053 28.5273C128.193 28.2734 128.375 28.0703 128.598 27.918C128.824 27.7656 129.078 27.6504 129.359 27.5723C129.566 27.5176 129.879 27.4648 130.297 27.4141C131.148 27.3125 131.775 27.1914 132.178 27.0508C132.182 26.9062 132.184 26.8145 132.184 26.7754C132.184 26.3457 132.084 26.043 131.885 25.8672C131.615 25.6289 131.215 25.5098 130.684 25.5098C130.188 25.5098 129.82 25.5977 129.582 25.7734C129.348 25.9453 129.174 26.252 129.061 26.6934L128.029 26.5527C128.123 26.1113 128.277 25.7559 128.492 25.4863C128.707 25.2129 129.018 25.0039 129.424 24.8594C129.83 24.7109 130.301 24.6367 130.836 24.6367C131.367 24.6367 131.799 24.6992 132.131 24.8242C132.463 24.9492 132.707 25.1074 132.863 25.2988C133.02 25.4863 133.129 25.7246 133.191 26.0137C133.227 26.1934 133.244 26.5176 133.244 26.9863V28.3926C133.244 29.373 133.266 29.9941 133.309 30.2559C133.355 30.5137 133.445 30.7617 133.578 31H132.477C132.367 30.7812 132.297 30.5254 132.266 30.2324ZM132.178 27.877C131.795 28.0332 131.221 28.166 130.455 28.2754C130.021 28.3379 129.715 28.4082 129.535 28.4863C129.355 28.5645 129.217 28.6797 129.119 28.832C129.021 28.9805 128.973 29.1465 128.973 29.3301C128.973 29.6113 129.078 29.8457 129.289 30.0332C129.504 30.2207 129.816 30.3145 130.227 30.3145C130.633 30.3145 130.994 30.2266 131.311 30.0508C131.627 29.8711 131.859 29.627 132.008 29.3184C132.121 29.0801 132.178 28.7285 132.178 28.2637V27.877ZM134.885 31V24.7773H135.834V25.6621C136.291 24.9785 136.951 24.6367 137.814 24.6367C138.189 24.6367 138.533 24.7051 138.846 24.8418C139.162 24.9746 139.398 25.1504 139.555 25.3691C139.711 25.5879 139.82 25.8477 139.883 26.1484C139.922 26.3438 139.941 26.6855 139.941 27.1738V31H138.887V27.2148C138.887 26.7852 138.846 26.4648 138.764 26.2539C138.682 26.0391 138.535 25.8691 138.324 25.7441C138.117 25.6152 137.873 25.5508 137.592 25.5508C137.143 25.5508 136.754 25.6934 136.426 25.9785C136.102 26.2637 135.939 26.8047 135.939 27.6016V31H134.885ZM145.625 30.2324C145.234 30.5645 144.857 30.7988 144.494 30.9355C144.135 31.0723 143.748 31.1406 143.334 31.1406C142.65 31.1406 142.125 30.9746 141.758 30.6426C141.391 30.3066 141.207 29.8789 141.207 29.3594C141.207 29.0547 141.275 28.7773 141.412 28.5273C141.553 28.2734 141.734 28.0703 141.957 27.918C142.184 27.7656 142.438 27.6504 142.719 27.5723C142.926 27.5176 143.238 27.4648 143.656 27.4141C144.508 27.3125 145.135 27.1914 145.537 27.0508C145.541 26.9062 145.543 26.8145 145.543 26.7754C145.543 26.3457 145.443 26.043 145.244 25.8672C144.975 25.6289 144.574 25.5098 144.043 25.5098C143.547 25.5098 143.18 25.5977 142.941 25.7734C142.707 25.9453 142.533 26.252 142.42 26.6934L141.389 26.5527C141.482 26.1113 141.637 25.7559 141.852 25.4863C142.066 25.2129 142.377 25.0039 142.783 24.8594C143.189 24.7109 143.66 24.6367 144.195 24.6367C144.727 24.6367 145.158 24.6992 145.49 24.8242C145.822 24.9492 146.066 25.1074 146.223 25.2988C146.379 25.4863 146.488 25.7246 146.551 26.0137C146.586 26.1934 146.604 26.5176 146.604 26.9863V28.3926C146.604 29.373 146.625 29.9941 146.668 30.2559C146.715 30.5137 146.805 30.7617 146.938 31H145.836C145.727 30.7812 145.656 30.5254 145.625 30.2324ZM145.537 27.877C145.154 28.0332 144.58 28.166 143.814 28.2754C143.381 28.3379 143.074 28.4082 142.895 28.4863C142.715 28.5645 142.576 28.6797 142.479 28.832C142.381 28.9805 142.332 29.1465 142.332 29.3301C142.332 29.6113 142.438 29.8457 142.648 30.0332C142.863 30.2207 143.176 30.3145 143.586 30.3145C143.992 30.3145 144.354 30.2266 144.67 30.0508C144.986 29.8711 145.219 29.627 145.367 29.3184C145.48 29.0801 145.537 28.7285 145.537 28.2637V27.877ZM148.051 31.5156L149.076 31.668C149.119 31.9844 149.238 32.2148 149.434 32.3594C149.695 32.5547 150.053 32.6523 150.506 32.6523C150.994 32.6523 151.371 32.5547 151.637 32.3594C151.902 32.1641 152.082 31.8906 152.176 31.5391C152.23 31.3242 152.256 30.873 152.252 30.1855C151.791 30.7285 151.217 31 150.529 31C149.674 31 149.012 30.6914 148.543 30.0742C148.074 29.457 147.84 28.7168 147.84 27.8535C147.84 27.2598 147.947 26.7129 148.162 26.2129C148.377 25.709 148.688 25.3203 149.094 25.0469C149.504 24.7734 149.984 24.6367 150.535 24.6367C151.27 24.6367 151.875 24.9336 152.352 25.5273V24.7773H153.324V30.1562C153.324 31.125 153.225 31.8105 153.025 32.2129C152.83 32.6191 152.518 32.9395 152.088 33.1738C151.662 33.4082 151.137 33.5254 150.512 33.5254C149.77 33.5254 149.17 33.3574 148.713 33.0215C148.256 32.6895 148.035 32.1875 148.051 31.5156ZM148.924 27.7773C148.924 28.5938 149.086 29.1895 149.41 29.5645C149.734 29.9395 150.141 30.127 150.629 30.127C151.113 30.127 151.52 29.9414 151.848 29.5703C152.176 29.1953 152.34 28.6094 152.34 27.8125C152.34 27.0508 152.17 26.4766 151.83 26.0898C151.494 25.7031 151.088 25.5098 150.611 25.5098C150.143 25.5098 149.744 25.7012 149.416 26.084C149.088 26.4629 148.924 27.0273 148.924 27.7773ZM159.184 28.9961L160.273 29.1309C160.102 29.7676 159.783 30.2617 159.318 30.6133C158.854 30.9648 158.26 31.1406 157.537 31.1406C156.627 31.1406 155.904 30.8613 155.369 30.3027C154.838 29.7402 154.572 28.9531 154.572 27.9414C154.572 26.8945 154.842 26.082 155.381 25.5039C155.92 24.9258 156.619 24.6367 157.479 24.6367C158.311 24.6367 158.99 24.9199 159.518 25.4863C160.045 26.0527 160.309 26.8496 160.309 27.877C160.309 27.9395 160.307 28.0332 160.303 28.1582H155.662C155.701 28.8418 155.895 29.3652 156.242 29.7285C156.59 30.0918 157.023 30.2734 157.543 30.2734C157.93 30.2734 158.26 30.1719 158.533 29.9688C158.807 29.7656 159.023 29.4414 159.184 28.9961ZM155.721 27.291H159.195C159.148 26.7676 159.016 26.375 158.797 26.1133C158.461 25.707 158.025 25.5039 157.49 25.5039C157.006 25.5039 156.598 25.666 156.266 25.9902C155.938 26.3145 155.756 26.748 155.721 27.291ZM161.604 31V24.7773H162.547V25.6504C162.742 25.3457 163.002 25.1016 163.326 24.918C163.65 24.7305 164.02 24.6367 164.434 24.6367C164.895 24.6367 165.271 24.7324 165.564 24.9238C165.861 25.1152 166.07 25.3828 166.191 25.7266C166.684 25 167.324 24.6367 168.113 24.6367C168.73 24.6367 169.205 24.8086 169.537 25.1523C169.869 25.4922 170.035 26.0176 170.035 26.7285V31H168.986V27.0801C168.986 26.6582 168.951 26.3555 168.881 26.1719C168.814 25.9844 168.691 25.834 168.512 25.7207C168.332 25.6074 168.121 25.5508 167.879 25.5508C167.441 25.5508 167.078 25.6973 166.789 25.9902C166.5 26.2793 166.355 26.7441 166.355 27.3848V31H165.301V26.957C165.301 26.4883 165.215 26.1367 165.043 25.9023C164.871 25.668 164.59 25.5508 164.199 25.5508C163.902 25.5508 163.627 25.6289 163.373 25.7852C163.123 25.9414 162.941 26.1699 162.828 26.4707C162.715 26.7715 162.658 27.2051 162.658 27.7715V31H161.604ZM175.859 28.9961L176.949 29.1309C176.777 29.7676 176.459 30.2617 175.994 30.6133C175.529 30.9648 174.936 31.1406 174.213 31.1406C173.303 31.1406 172.58 30.8613 172.045 30.3027C171.514 29.7402 171.248 28.9531 171.248 27.9414C171.248 26.8945 171.518 26.082 172.057 25.5039C172.596 24.9258 173.295 24.6367 174.154 24.6367C174.986 24.6367 175.666 24.9199 176.193 25.4863C176.721 26.0527 176.984 26.8496 176.984 27.877C176.984 27.9395 176.982 28.0332 176.979 28.1582H172.338C172.377 28.8418 172.57 29.3652 172.918 29.7285C173.266 30.0918 173.699 30.2734 174.219 30.2734C174.605 30.2734 174.936 30.1719 175.209 29.9688C175.482 29.7656 175.699 29.4414 175.859 28.9961ZM172.396 27.291H175.871C175.824 26.7676 175.691 26.375 175.473 26.1133C175.137 25.707 174.701 25.5039 174.166 25.5039C173.682 25.5039 173.273 25.666 172.941 25.9902C172.613 26.3145 172.432 26.748 172.396 27.291ZM178.279 31V24.7773H179.229V25.6621C179.686 24.9785 180.346 24.6367 181.209 24.6367C181.584 24.6367 181.928 24.7051 182.24 24.8418C182.557 24.9746 182.793 25.1504 182.949 25.3691C183.105 25.5879 183.215 25.8477 183.277 26.1484C183.316 26.3438 183.336 26.6855 183.336 27.1738V31H182.281V27.2148C182.281 26.7852 182.24 26.4648 182.158 26.2539C182.076 26.0391 181.93 25.8691 181.719 25.7441C181.512 25.6152 181.268 25.5508 180.986 25.5508C180.537 25.5508 180.148 25.6934 179.82 25.9785C179.496 26.2637 179.334 26.8047 179.334 27.6016V31H178.279ZM187.262 30.0566L187.414 30.9883C187.117 31.0508 186.852 31.082 186.617 31.082C186.234 31.082 185.938 31.0215 185.727 30.9004C185.516 30.7793 185.367 30.6211 185.281 30.4258C185.195 30.2266 185.152 29.8105 185.152 29.1777V25.5977H184.379V24.7773H185.152V23.2363L186.201 22.6035V24.7773H187.262V25.5977H186.201V29.2363C186.201 29.5371 186.219 29.7305 186.254 29.8164C186.293 29.9023 186.354 29.9707 186.436 30.0215C186.521 30.0723 186.643 30.0977 186.799 30.0977C186.916 30.0977 187.07 30.084 187.262 30.0566ZM195.699 30.2324C195.309 30.5645 194.932 30.7988 194.568 30.9355C194.209 31.0723 193.822 31.1406 193.408 31.1406C192.725 31.1406 192.199 30.9746 191.832 30.6426C191.465 30.3066 191.281 29.8789 191.281 29.3594C191.281 29.0547 191.35 28.7773 191.486 28.5273C191.627 28.2734 191.809 28.0703 192.031 27.918C192.258 27.7656 192.512 27.6504 192.793 27.5723C193 27.5176 193.312 27.4648 193.73 27.4141C194.582 27.3125 195.209 27.1914 195.611 27.0508C195.615 26.9062 195.617 26.8145 195.617 26.7754C195.617 26.3457 195.518 26.043 195.318 25.8672C195.049 25.6289 194.648 25.5098 194.117 25.5098C193.621 25.5098 193.254 25.5977 193.016 25.7734C192.781 25.9453 192.607 26.252 192.494 26.6934L191.463 26.5527C191.557 26.1113 191.711 25.7559 191.926 25.4863C192.141 25.2129 192.451 25.0039 192.857 24.8594C193.264 24.7109 193.734 24.6367 194.27 24.6367C194.801 24.6367 195.232 24.6992 195.564 24.8242C195.896 24.9492 196.141 25.1074 196.297 25.2988C196.453 25.4863 196.562 25.7246 196.625 26.0137C196.66 26.1934 196.678 26.5176 196.678 26.9863V28.3926C196.678 29.373 196.699 29.9941 196.742 30.2559C196.789 30.5137 196.879 30.7617 197.012 31H195.91C195.801 30.7812 195.73 30.5254 195.699 30.2324ZM195.611 27.877C195.229 28.0332 194.654 28.166 193.889 28.2754C193.455 28.3379 193.148 28.4082 192.969 28.4863C192.789 28.5645 192.65 28.6797 192.553 28.832C192.455 28.9805 192.406 29.1465 192.406 29.3301C192.406 29.6113 192.512 29.8457 192.723 30.0332C192.938 30.2207 193.25 30.3145 193.66 30.3145C194.066 30.3145 194.428 30.2266 194.744 30.0508C195.061 29.8711 195.293 29.627 195.441 29.3184C195.555 29.0801 195.611 28.7285 195.611 28.2637V27.877ZM198.318 31V24.7773H199.268V25.6621C199.725 24.9785 200.385 24.6367 201.248 24.6367C201.623 24.6367 201.967 24.7051 202.279 24.8418C202.596 24.9746 202.832 25.1504 202.988 25.3691C203.145 25.5879 203.254 25.8477 203.316 26.1484C203.355 26.3438 203.375 26.6855 203.375 27.1738V31H202.32V27.2148C202.32 26.7852 202.279 26.4648 202.197 26.2539C202.115 26.0391 201.969 25.8691 201.758 25.7441C201.551 25.6152 201.307 25.5508 201.025 25.5508C200.576 25.5508 200.188 25.6934 199.859 25.9785C199.535 26.2637 199.373 26.8047 199.373 27.6016V31H198.318ZM209.035 31V30.2148C208.641 30.832 208.061 31.1406 207.295 31.1406C206.799 31.1406 206.342 31.0039 205.924 30.7305C205.51 30.457 205.188 30.0762 204.957 29.5879C204.73 29.0957 204.617 28.5312 204.617 27.8945C204.617 27.2734 204.721 26.7109 204.928 26.207C205.135 25.6992 205.445 25.3105 205.859 25.041C206.273 24.7715 206.736 24.6367 207.248 24.6367C207.623 24.6367 207.957 24.7168 208.25 24.877C208.543 25.0332 208.781 25.2383 208.965 25.4922V22.4102H210.014V31H209.035ZM205.701 27.8945C205.701 28.6914 205.869 29.2871 206.205 29.6816C206.541 30.0762 206.938 30.2734 207.395 30.2734C207.855 30.2734 208.246 30.0859 208.566 29.7109C208.891 29.332 209.053 28.7559 209.053 27.9824C209.053 27.1309 208.889 26.5059 208.561 26.1074C208.232 25.709 207.828 25.5098 207.348 25.5098C206.879 25.5098 206.486 25.7012 206.17 26.084C205.857 26.4668 205.701 27.0703 205.701 27.8945ZM216.746 31L214.379 24.7773H215.492L216.828 28.5039C216.973 28.9062 217.105 29.3242 217.227 29.7578C217.32 29.4297 217.451 29.0352 217.619 28.5742L219.002 24.7773H220.086L217.73 31H216.746ZM225.078 30.2324C224.688 30.5645 224.311 30.7988 223.947 30.9355C223.588 31.0723 223.201 31.1406 222.787 31.1406C222.104 31.1406 221.578 30.9746 221.211 30.6426C220.844 30.3066 220.66 29.8789 220.66 29.3594C220.66 29.0547 220.729 28.7773 220.865 28.5273C221.006 28.2734 221.188 28.0703 221.41 27.918C221.637 27.7656 221.891 27.6504 222.172 27.5723C222.379 27.5176 222.691 27.4648 223.109 27.4141C223.961 27.3125 224.588 27.1914 224.99 27.0508C224.994 26.9062 224.996 26.8145 224.996 26.7754C224.996 26.3457 224.896 26.043 224.697 25.8672C224.428 25.6289 224.027 25.5098 223.496 25.5098C223 25.5098 222.633 25.5977 222.395 25.7734C222.16 25.9453 221.986 26.252 221.873 26.6934L220.842 26.5527C220.936 26.1113 221.09 25.7559 221.305 25.4863C221.52 25.2129 221.83 25.0039 222.236 24.8594C222.643 24.7109 223.113 24.6367 223.648 24.6367C224.18 24.6367 224.611 24.6992 224.943 24.8242C225.275 24.9492 225.52 25.1074 225.676 25.2988C225.832 25.4863 225.941 25.7246 226.004 26.0137C226.039 26.1934 226.057 26.5176 226.057 26.9863V28.3926C226.057 29.373 226.078 29.9941 226.121 30.2559C226.168 30.5137 226.258 30.7617 226.391 31H225.289C225.18 30.7812 225.109 30.5254 225.078 30.2324ZM224.99 27.877C224.607 28.0332 224.033 28.166 223.268 28.2754C222.834 28.3379 222.527 28.4082 222.348 28.4863C222.168 28.5645 222.029 28.6797 221.932 28.832C221.834 28.9805 221.785 29.1465 221.785 29.3301C221.785 29.6113 221.891 29.8457 222.102 30.0332C222.316 30.2207 222.629 30.3145 223.039 30.3145C223.445 30.3145 223.807 30.2266 224.123 30.0508C224.439 29.8711 224.672 29.627 224.82 29.3184C224.934 29.0801 224.99 28.7285 224.99 28.2637V27.877ZM227.674 31V22.4102H228.729V31H227.674ZM234.447 31V30.0859C233.963 30.7891 233.305 31.1406 232.473 31.1406C232.105 31.1406 231.762 31.0703 231.441 30.9297C231.125 30.7891 230.889 30.6133 230.732 30.4023C230.58 30.1875 230.473 29.9258 230.41 29.6172C230.367 29.4102 230.346 29.082 230.346 28.6328V24.7773H231.4V28.2285C231.4 28.7793 231.422 29.1504 231.465 29.3418C231.531 29.6191 231.672 29.8379 231.887 29.998C232.102 30.1543 232.367 30.2324 232.684 30.2324C233 30.2324 233.297 30.1523 233.574 29.9922C233.852 29.8281 234.047 29.6074 234.16 29.3301C234.277 29.0488 234.336 28.6426 234.336 28.1113V24.7773H235.391V31H234.447ZM241.309 28.9961L242.398 29.1309C242.227 29.7676 241.908 30.2617 241.443 30.6133C240.979 30.9648 240.385 31.1406 239.662 31.1406C238.752 31.1406 238.029 30.8613 237.494 30.3027C236.963 29.7402 236.697 28.9531 236.697 27.9414C236.697 26.8945 236.967 26.082 237.506 25.5039C238.045 24.9258 238.744 24.6367 239.604 24.6367C240.436 24.6367 241.115 24.9199 241.643 25.4863C242.17 26.0527 242.434 26.8496 242.434 27.877C242.434 27.9395 242.432 28.0332 242.428 28.1582H237.787C237.826 28.8418 238.02 29.3652 238.367 29.7285C238.715 30.0918 239.148 30.2734 239.668 30.2734C240.055 30.2734 240.385 30.1719 240.658 29.9688C240.932 29.7656 241.148 29.4414 241.309 28.9961ZM237.846 27.291H241.32C241.273 26.7676 241.141 26.375 240.922 26.1133C240.586 25.707 240.15 25.5039 239.615 25.5039C239.131 25.5039 238.723 25.666 238.391 25.9902C238.062 26.3145 237.881 26.748 237.846 27.291Z" fill="#999999"/>
<path d="M284.312 384.155L284.537 383.462C285.055 383.644 285.431 383.802 285.665 383.936C285.603 383.346 285.571 382.941 285.567 382.72H286.275C286.266 383.042 286.228 383.446 286.163 383.931C286.498 383.761 286.882 383.605 287.315 383.462L287.54 384.155C287.127 384.292 286.721 384.383 286.324 384.429C286.523 384.601 286.803 384.909 287.164 385.352L286.578 385.767C286.389 385.509 286.166 385.16 285.909 384.717C285.668 385.176 285.457 385.526 285.274 385.767L284.698 385.352C285.076 384.886 285.346 384.578 285.509 384.429C285.089 384.347 284.69 384.256 284.312 384.155ZM291.319 390V382.842H292.198V390H291.319ZM296.949 389.36C296.624 389.637 296.31 389.832 296.007 389.946C295.707 390.06 295.385 390.117 295.04 390.117C294.47 390.117 294.033 389.979 293.727 389.702C293.421 389.422 293.268 389.066 293.268 388.633C293.268 388.379 293.325 388.148 293.438 387.939C293.556 387.728 293.707 387.559 293.893 387.432C294.081 387.305 294.293 387.209 294.527 387.144C294.7 387.098 294.96 387.054 295.309 387.012C296.018 386.927 296.541 386.826 296.876 386.709C296.879 386.589 296.881 386.512 296.881 386.479C296.881 386.121 296.798 385.869 296.632 385.723C296.407 385.524 296.074 385.425 295.631 385.425C295.217 385.425 294.911 385.498 294.713 385.645C294.518 385.788 294.373 386.043 294.278 386.411L293.419 386.294C293.497 385.926 293.626 385.63 293.805 385.405C293.984 385.177 294.243 385.003 294.581 384.883C294.92 384.759 295.312 384.697 295.758 384.697C296.201 384.697 296.56 384.749 296.837 384.854C297.114 384.958 297.317 385.09 297.447 385.249C297.577 385.405 297.669 385.604 297.721 385.845C297.75 385.994 297.765 386.265 297.765 386.655V387.827C297.765 388.644 297.783 389.162 297.818 389.38C297.857 389.595 297.932 389.801 298.043 390H297.125C297.034 389.818 296.975 389.604 296.949 389.36ZM296.876 387.397C296.557 387.528 296.078 387.638 295.44 387.729C295.079 387.782 294.824 387.84 294.674 387.905C294.524 387.97 294.409 388.066 294.327 388.193C294.246 388.317 294.205 388.455 294.205 388.608C294.205 388.843 294.293 389.038 294.469 389.194C294.648 389.351 294.908 389.429 295.25 389.429C295.589 389.429 295.89 389.355 296.153 389.209C296.417 389.059 296.611 388.856 296.734 388.599C296.829 388.4 296.876 388.107 296.876 387.72V387.397ZM298.78 388.452L299.649 388.315C299.698 388.664 299.833 388.931 300.055 389.116C300.279 389.302 300.592 389.395 300.992 389.395C301.396 389.395 301.695 389.313 301.891 389.15C302.086 388.984 302.184 388.791 302.184 388.569C302.184 388.371 302.097 388.215 301.925 388.101C301.804 388.022 301.505 387.923 301.026 387.803C300.382 387.64 299.934 387.5 299.684 387.383C299.436 387.262 299.247 387.098 299.117 386.89C298.99 386.678 298.927 386.445 298.927 386.191C298.927 385.96 298.979 385.747 299.083 385.552C299.19 385.353 299.335 385.189 299.518 385.059C299.654 384.958 299.84 384.873 300.074 384.805C300.312 384.733 300.566 384.697 300.836 384.697C301.243 384.697 301.599 384.756 301.905 384.873C302.215 384.99 302.442 385.15 302.589 385.352C302.735 385.55 302.836 385.817 302.892 386.152L302.032 386.27C301.993 386.003 301.879 385.794 301.69 385.645C301.505 385.495 301.241 385.42 300.899 385.42C300.496 385.42 300.208 385.487 300.035 385.62C299.863 385.754 299.776 385.91 299.776 386.089C299.776 386.203 299.812 386.305 299.884 386.396C299.955 386.491 300.068 386.569 300.221 386.631C300.309 386.663 300.567 386.738 300.997 386.855C301.619 387.021 302.052 387.158 302.296 387.266C302.543 387.37 302.737 387.523 302.877 387.725C303.017 387.926 303.087 388.177 303.087 388.477C303.087 388.77 303.001 389.046 302.828 389.307C302.659 389.564 302.413 389.764 302.091 389.907C301.769 390.047 301.404 390.117 300.997 390.117C300.323 390.117 299.809 389.977 299.454 389.697C299.103 389.417 298.878 389.002 298.78 388.452ZM306.051 389.214L306.178 389.99C305.93 390.042 305.709 390.068 305.514 390.068C305.195 390.068 304.947 390.018 304.771 389.917C304.596 389.816 304.472 389.684 304.4 389.521C304.329 389.355 304.293 389.009 304.293 388.481V385.498H303.648V384.814H304.293V383.53L305.167 383.003V384.814H306.051V385.498H305.167V388.53C305.167 388.781 305.182 388.942 305.211 389.014C305.243 389.085 305.294 389.142 305.362 389.185C305.434 389.227 305.535 389.248 305.665 389.248C305.763 389.248 305.891 389.237 306.051 389.214ZM313.097 390V389.238C312.693 389.824 312.145 390.117 311.451 390.117C311.145 390.117 310.859 390.059 310.592 389.941C310.328 389.824 310.131 389.678 310.001 389.502C309.874 389.323 309.785 389.105 309.732 388.848C309.697 388.675 309.679 388.402 309.679 388.027V384.814H310.558V387.69C310.558 388.149 310.576 388.459 310.611 388.618C310.667 388.849 310.784 389.032 310.963 389.165C311.142 389.295 311.363 389.36 311.627 389.36C311.891 389.36 312.138 389.294 312.369 389.16C312.6 389.023 312.763 388.84 312.857 388.608C312.955 388.374 313.004 388.035 313.004 387.593V384.814H313.883V390H313.097ZM315.265 391.987V384.814H316.065V385.488C316.254 385.225 316.467 385.028 316.705 384.897C316.943 384.764 317.231 384.697 317.569 384.697C318.012 384.697 318.403 384.811 318.741 385.039C319.08 385.267 319.335 385.589 319.508 386.006C319.68 386.419 319.767 386.873 319.767 387.368C319.767 387.899 319.671 388.377 319.479 388.804C319.29 389.227 319.013 389.552 318.648 389.78C318.287 390.005 317.906 390.117 317.506 390.117C317.213 390.117 316.949 390.055 316.715 389.932C316.484 389.808 316.293 389.652 316.144 389.463V391.987H315.265ZM316.061 387.437C316.061 388.104 316.196 388.597 316.466 388.916C316.736 389.235 317.063 389.395 317.447 389.395C317.838 389.395 318.172 389.23 318.448 388.901C318.728 388.569 318.868 388.057 318.868 387.363C318.868 386.702 318.731 386.208 318.458 385.879C318.188 385.55 317.864 385.386 317.486 385.386C317.112 385.386 316.78 385.562 316.49 385.913C316.204 386.261 316.061 386.769 316.061 387.437ZM324.195 390V389.346C323.867 389.86 323.383 390.117 322.745 390.117C322.332 390.117 321.951 390.003 321.603 389.775C321.257 389.548 320.989 389.23 320.797 388.823C320.608 388.413 320.514 387.943 320.514 387.412C320.514 386.895 320.6 386.426 320.772 386.006C320.945 385.583 321.204 385.259 321.549 385.034C321.894 384.81 322.28 384.697 322.706 384.697C323.019 384.697 323.297 384.764 323.541 384.897C323.785 385.028 323.984 385.199 324.137 385.41V382.842H325.011V390H324.195ZM321.417 387.412C321.417 388.076 321.557 388.573 321.837 388.901C322.117 389.23 322.447 389.395 322.828 389.395C323.212 389.395 323.538 389.238 323.805 388.926C324.075 388.61 324.21 388.13 324.21 387.485C324.21 386.776 324.073 386.255 323.8 385.923C323.526 385.591 323.189 385.425 322.789 385.425C322.398 385.425 322.071 385.584 321.808 385.903C321.547 386.222 321.417 386.725 321.417 387.412ZM329.781 389.36C329.456 389.637 329.142 389.832 328.839 389.946C328.539 390.06 328.217 390.117 327.872 390.117C327.302 390.117 326.865 389.979 326.559 389.702C326.253 389.422 326.1 389.066 326.1 388.633C326.1 388.379 326.157 388.148 326.271 387.939C326.388 387.728 326.539 387.559 326.725 387.432C326.913 387.305 327.125 387.209 327.359 387.144C327.532 387.098 327.792 387.054 328.141 387.012C328.85 386.927 329.373 386.826 329.708 386.709C329.711 386.589 329.713 386.512 329.713 386.479C329.713 386.121 329.63 385.869 329.464 385.723C329.239 385.524 328.906 385.425 328.463 385.425C328.049 385.425 327.743 385.498 327.545 385.645C327.35 385.788 327.205 386.043 327.11 386.411L326.251 386.294C326.329 385.926 326.458 385.63 326.637 385.405C326.816 385.177 327.075 385.003 327.413 384.883C327.752 384.759 328.144 384.697 328.59 384.697C329.033 384.697 329.392 384.749 329.669 384.854C329.946 384.958 330.149 385.09 330.279 385.249C330.41 385.405 330.501 385.604 330.553 385.845C330.582 385.994 330.597 386.265 330.597 386.655V387.827C330.597 388.644 330.615 389.162 330.65 389.38C330.689 389.595 330.764 389.801 330.875 390H329.957C329.866 389.818 329.807 389.604 329.781 389.36ZM329.708 387.397C329.389 387.528 328.91 387.638 328.272 387.729C327.911 387.782 327.656 387.84 327.506 387.905C327.356 387.97 327.241 388.066 327.159 388.193C327.078 388.317 327.037 388.455 327.037 388.608C327.037 388.843 327.125 389.038 327.301 389.194C327.48 389.351 327.74 389.429 328.082 389.429C328.421 389.429 328.722 389.355 328.985 389.209C329.249 389.059 329.443 388.856 329.566 388.599C329.661 388.4 329.708 388.107 329.708 387.72V387.397ZM333.883 389.214L334.01 389.99C333.762 390.042 333.541 390.068 333.346 390.068C333.027 390.068 332.779 390.018 332.604 389.917C332.428 389.816 332.304 389.684 332.232 389.521C332.161 389.355 332.125 389.009 332.125 388.481V385.498H331.48V384.814H332.125V383.53L332.999 383.003V384.814H333.883V385.498H332.999V388.53C332.999 388.781 333.014 388.942 333.043 389.014C333.076 389.085 333.126 389.142 333.194 389.185C333.266 389.227 333.367 389.248 333.497 389.248C333.595 389.248 333.723 389.237 333.883 389.214ZM338.297 388.33L339.205 388.442C339.062 388.973 338.797 389.385 338.409 389.678C338.022 389.971 337.527 390.117 336.925 390.117C336.166 390.117 335.564 389.884 335.118 389.419C334.675 388.95 334.454 388.294 334.454 387.451C334.454 386.579 334.679 385.902 335.128 385.42C335.577 384.938 336.16 384.697 336.876 384.697C337.569 384.697 338.136 384.933 338.575 385.405C339.015 385.877 339.234 386.541 339.234 387.397C339.234 387.45 339.233 387.528 339.229 387.632H335.362C335.395 388.201 335.556 388.638 335.846 388.94C336.135 389.243 336.497 389.395 336.93 389.395C337.252 389.395 337.527 389.31 337.755 389.141C337.983 388.971 338.163 388.701 338.297 388.33ZM335.411 386.909H338.307C338.268 386.473 338.157 386.146 337.975 385.928C337.695 385.589 337.332 385.42 336.886 385.42C336.482 385.42 336.142 385.555 335.865 385.825C335.592 386.095 335.44 386.457 335.411 386.909ZM343.678 390V389.346C343.349 389.86 342.866 390.117 342.228 390.117C341.814 390.117 341.433 390.003 341.085 389.775C340.74 389.548 340.471 389.23 340.279 388.823C340.09 388.413 339.996 387.943 339.996 387.412C339.996 386.895 340.082 386.426 340.255 386.006C340.427 385.583 340.686 385.259 341.031 385.034C341.376 384.81 341.762 384.697 342.188 384.697C342.501 384.697 342.779 384.764 343.023 384.897C343.268 385.028 343.466 385.199 343.619 385.41V382.842H344.493V390H343.678ZM340.899 387.412C340.899 388.076 341.039 388.573 341.319 388.901C341.599 389.23 341.93 389.395 342.311 389.395C342.695 389.395 343.02 389.238 343.287 388.926C343.557 388.61 343.692 388.13 343.692 387.485C343.692 386.776 343.556 386.255 343.282 385.923C343.009 385.591 342.672 385.425 342.271 385.425C341.881 385.425 341.554 385.584 341.29 385.903C341.03 386.222 340.899 386.725 340.899 387.412ZM350.343 392.104C349.858 391.493 349.448 390.776 349.112 389.956C348.777 389.136 348.609 388.286 348.609 387.407C348.609 386.632 348.735 385.89 348.985 385.181C349.278 384.357 349.731 383.537 350.343 382.72H350.973C350.579 383.397 350.318 383.88 350.191 384.17C349.993 384.619 349.837 385.088 349.723 385.576C349.583 386.185 349.513 386.797 349.513 387.412C349.513 388.978 349.999 390.542 350.973 392.104H350.343ZM352.105 390V382.842H354.571C355.128 382.842 355.553 382.876 355.846 382.944C356.256 383.039 356.606 383.21 356.896 383.457C357.273 383.776 357.555 384.185 357.74 384.683C357.929 385.177 358.023 385.744 358.023 386.382C358.023 386.925 357.96 387.407 357.833 387.827C357.706 388.247 357.543 388.595 357.345 388.872C357.146 389.146 356.928 389.362 356.69 389.521C356.456 389.678 356.171 389.797 355.836 389.878C355.504 389.959 355.121 390 354.688 390H352.105ZM353.053 389.155H354.581C355.053 389.155 355.423 389.111 355.689 389.023C355.96 388.936 356.174 388.812 356.334 388.652C356.559 388.428 356.733 388.127 356.856 387.749C356.983 387.368 357.047 386.908 357.047 386.367C357.047 385.618 356.923 385.044 356.676 384.644C356.432 384.24 356.134 383.97 355.782 383.833C355.528 383.735 355.12 383.687 354.557 383.687H353.053V389.155ZM362.604 389.36C362.278 389.637 361.964 389.832 361.661 389.946C361.362 390.06 361.039 390.117 360.694 390.117C360.125 390.117 359.687 389.979 359.381 389.702C359.075 389.422 358.922 389.066 358.922 388.633C358.922 388.379 358.979 388.148 359.093 387.939C359.21 387.728 359.361 387.559 359.547 387.432C359.736 387.305 359.947 387.209 360.182 387.144C360.354 387.098 360.615 387.054 360.963 387.012C361.673 386.927 362.195 386.826 362.53 386.709C362.534 386.589 362.535 386.512 362.535 386.479C362.535 386.121 362.452 385.869 362.286 385.723C362.062 385.524 361.728 385.425 361.285 385.425C360.872 385.425 360.566 385.498 360.367 385.645C360.172 385.788 360.027 386.043 359.933 386.411L359.073 386.294C359.151 385.926 359.28 385.63 359.459 385.405C359.638 385.177 359.897 385.003 360.235 384.883C360.574 384.759 360.966 384.697 361.412 384.697C361.855 384.697 362.215 384.749 362.491 384.854C362.768 384.958 362.971 385.09 363.102 385.249C363.232 385.405 363.323 385.604 363.375 385.845C363.404 385.994 363.419 386.265 363.419 386.655V387.827C363.419 388.644 363.437 389.162 363.473 389.38C363.512 389.595 363.587 389.801 363.697 390H362.779C362.688 389.818 362.63 389.604 362.604 389.36ZM362.53 387.397C362.211 387.528 361.733 387.638 361.095 387.729C360.733 387.782 360.478 387.84 360.328 387.905C360.178 387.97 360.063 388.066 359.981 388.193C359.9 388.317 359.859 388.455 359.859 388.608C359.859 388.843 359.947 389.038 360.123 389.194C360.302 389.351 360.562 389.429 360.904 389.429C361.243 389.429 361.544 389.355 361.808 389.209C362.071 389.059 362.265 388.856 362.389 388.599C362.483 388.4 362.53 388.107 362.53 387.72V387.397ZM366.705 389.214L366.832 389.99C366.585 390.042 366.363 390.068 366.168 390.068C365.849 390.068 365.602 390.018 365.426 389.917C365.25 389.816 365.126 389.684 365.055 389.521C364.983 389.355 364.947 389.009 364.947 388.481V385.498H364.303V384.814H364.947V383.53L365.821 383.003V384.814H366.705V385.498H365.821V388.53C365.821 388.781 365.836 388.942 365.865 389.014C365.898 389.085 365.948 389.142 366.017 389.185C366.088 389.227 366.189 389.248 366.319 389.248C366.417 389.248 366.546 389.237 366.705 389.214ZM371.119 388.33L372.027 388.442C371.884 388.973 371.619 389.385 371.231 389.678C370.844 389.971 370.349 390.117 369.747 390.117C368.989 390.117 368.386 389.884 367.94 389.419C367.498 388.95 367.276 388.294 367.276 387.451C367.276 386.579 367.501 385.902 367.95 385.42C368.399 384.938 368.982 384.697 369.698 384.697C370.392 384.697 370.958 384.933 371.397 385.405C371.837 385.877 372.057 386.541 372.057 387.397C372.057 387.45 372.055 387.528 372.052 387.632H368.185C368.217 388.201 368.378 388.638 368.668 388.94C368.958 389.243 369.319 389.395 369.752 389.395C370.074 389.395 370.349 389.31 370.577 389.141C370.805 388.971 370.986 388.701 371.119 388.33ZM368.233 386.909H371.129C371.09 386.473 370.979 386.146 370.797 385.928C370.517 385.589 370.154 385.42 369.708 385.42C369.304 385.42 368.964 385.555 368.688 385.825C368.414 386.095 368.263 386.457 368.233 386.909ZM373.712 392.104H373.082C374.055 390.542 374.542 388.978 374.542 387.412C374.542 386.8 374.472 386.193 374.332 385.591C374.221 385.103 374.067 384.634 373.868 384.185C373.741 383.892 373.479 383.403 373.082 382.72H373.712C374.324 383.537 374.776 384.357 375.069 385.181C375.32 385.89 375.445 386.632 375.445 387.407C375.445 388.286 375.276 389.136 374.938 389.956C374.602 390.776 374.194 391.493 373.712 392.104Z" fill="#999999"/>
<mask id="mask0_1_2" style="mask-type:alpha" maskUnits="userSpaceOnUse" x="159" y="208" width="150" height="150">
<path fill-rule="evenodd" clip-rule="evenodd" d="M234 358C275.421 358 309 324.421 309 283C309 241.579 275.421 208 234 208C192.579 208 159 241.579 159 283C159 324.421 192.579 358 234 358ZM234 309C248.359 309 260 297.359 260 283C260 268.641 248.359 257 234 257C219.641 257 208 268.641 208 283C208 297.359 219.641 309 234 309Z" fill="#D9D9D9"/>
</mask>
<g mask="url(#mask0_1_2)">
<path fill-rule="evenodd" clip-rule="evenodd" d="M234 358C275.421 358 309 324.421 309 283C309 241.579 275.421 208 234 208C192.579 208 159 241.579 159 283C159 324.421 192.579 358 234 358ZM234 309C248.359 309 260 297.359 260 283C260 268.641 248.359 257 234 257C219.641 257 208 268.641 208 283C208 297.359 219.641 309 234 309Z" fill="#004B6A"/>
<path d="M233 266L217 201L202.5 194L144.5 241L222 277.5L233 266Z" fill="#58595B"/>
<path d="M226.5 273.5L163 243L146 254.5L151 324L226.5 288V273.5Z" fill="#017D67"/>
</g>
<path d="M191.786 243V235.842H194.96C195.598 235.842 196.083 235.907 196.415 236.037C196.747 236.164 197.012 236.39 197.211 236.716C197.41 237.041 197.509 237.401 197.509 237.795C197.509 238.303 197.344 238.731 197.016 239.079C196.687 239.427 196.179 239.649 195.492 239.743C195.743 239.864 195.933 239.982 196.063 240.1C196.34 240.354 196.602 240.671 196.85 241.052L198.095 243H196.903L195.956 241.511C195.679 241.081 195.451 240.752 195.272 240.524C195.093 240.297 194.932 240.137 194.789 240.046C194.649 239.955 194.506 239.891 194.359 239.855C194.252 239.833 194.076 239.821 193.832 239.821H192.733V243H191.786ZM192.733 239.001H194.77C195.202 239.001 195.541 238.957 195.785 238.869C196.029 238.778 196.215 238.635 196.342 238.439C196.469 238.241 196.532 238.026 196.532 237.795C196.532 237.456 196.409 237.178 196.161 236.96C195.917 236.742 195.53 236.633 194.999 236.633H192.733V239.001ZM198.773 241.345L199.618 241.267C199.69 241.664 199.826 241.952 200.028 242.131C200.23 242.31 200.489 242.399 200.805 242.399C201.075 242.399 201.311 242.338 201.513 242.214C201.718 242.09 201.885 241.926 202.016 241.721C202.146 241.512 202.255 241.232 202.343 240.881C202.431 240.529 202.475 240.171 202.475 239.807C202.475 239.768 202.473 239.709 202.47 239.631C202.294 239.911 202.053 240.139 201.747 240.314C201.444 240.487 201.116 240.573 200.761 240.573C200.168 240.573 199.667 240.358 199.257 239.929C198.847 239.499 198.642 238.933 198.642 238.229C198.642 237.504 198.855 236.919 199.281 236.477C199.711 236.034 200.248 235.812 200.893 235.812C201.358 235.812 201.783 235.938 202.167 236.188C202.554 236.439 202.847 236.797 203.046 237.263C203.248 237.725 203.349 238.396 203.349 239.274C203.349 240.189 203.249 240.918 203.051 241.462C202.852 242.002 202.556 242.414 202.162 242.697C201.771 242.98 201.312 243.122 200.785 243.122C200.225 243.122 199.768 242.967 199.413 242.658C199.058 242.346 198.845 241.908 198.773 241.345ZM202.372 238.186C202.372 237.681 202.237 237.281 201.967 236.984C201.7 236.688 201.378 236.54 201 236.54C200.609 236.54 200.269 236.7 199.979 237.019C199.69 237.338 199.545 237.751 199.545 238.259C199.545 238.715 199.682 239.086 199.955 239.372C200.232 239.655 200.572 239.797 200.976 239.797C201.382 239.797 201.716 239.655 201.977 239.372C202.24 239.086 202.372 238.69 202.372 238.186ZM204.452 243V237.814H205.238V238.542C205.401 238.288 205.618 238.085 205.888 237.932C206.158 237.775 206.465 237.697 206.811 237.697C207.195 237.697 207.509 237.777 207.753 237.937C208 238.096 208.174 238.319 208.275 238.605C208.686 238 209.219 237.697 209.877 237.697C210.391 237.697 210.787 237.84 211.063 238.127C211.34 238.41 211.479 238.848 211.479 239.44V243H210.604V239.733C210.604 239.382 210.575 239.13 210.517 238.977C210.461 238.82 210.359 238.695 210.209 238.601C210.059 238.506 209.883 238.459 209.682 238.459C209.317 238.459 209.014 238.581 208.773 238.825C208.533 239.066 208.412 239.453 208.412 239.987V243H207.533V239.631C207.533 239.24 207.462 238.947 207.318 238.752C207.175 238.557 206.941 238.459 206.615 238.459C206.368 238.459 206.138 238.524 205.927 238.654C205.718 238.785 205.567 238.975 205.473 239.226C205.378 239.476 205.331 239.838 205.331 240.31V243H204.452ZM212.787 236.853V235.842H213.666V236.853H212.787ZM212.787 243V237.814H213.666V243H212.787ZM214.989 243V235.842H215.868V243H214.989Z" fill="white"/>
<path d="M172.786 283V275.842H175.96C176.598 275.842 177.083 275.907 177.415 276.037C177.747 276.164 178.012 276.39 178.211 276.716C178.41 277.041 178.509 277.401 178.509 277.795C178.509 278.303 178.344 278.731 178.016 279.079C177.687 279.427 177.179 279.649 176.492 279.743C176.743 279.864 176.933 279.982 177.063 280.1C177.34 280.354 177.602 280.671 177.85 281.052L179.095 283H177.903L176.956 281.511C176.679 281.081 176.451 280.752 176.272 280.524C176.093 280.297 175.932 280.137 175.789 280.046C175.649 279.955 175.506 279.891 175.359 279.855C175.252 279.833 175.076 279.821 174.832 279.821H173.733V283H172.786ZM173.733 279.001H175.77C176.202 279.001 176.541 278.957 176.785 278.869C177.029 278.778 177.215 278.635 177.342 278.439C177.469 278.241 177.532 278.026 177.532 277.795C177.532 277.456 177.409 277.178 177.161 276.96C176.917 276.742 176.53 276.633 175.999 276.633H173.733V279.001ZM182.952 283H182.073V277.399C181.862 277.601 181.583 277.803 181.238 278.005C180.896 278.207 180.589 278.358 180.315 278.459V277.609C180.807 277.378 181.237 277.098 181.604 276.77C181.972 276.441 182.233 276.122 182.386 275.812H182.952V283ZM185.208 279.47C185.208 278.623 185.294 277.943 185.467 277.429C185.643 276.911 185.901 276.512 186.243 276.232C186.588 275.952 187.021 275.812 187.542 275.812C187.926 275.812 188.263 275.891 188.553 276.047C188.842 276.2 189.082 276.423 189.271 276.716C189.459 277.006 189.607 277.36 189.715 277.78C189.822 278.197 189.876 278.76 189.876 279.47C189.876 280.31 189.79 280.988 189.617 281.506C189.445 282.02 189.186 282.419 188.841 282.702C188.499 282.982 188.066 283.122 187.542 283.122C186.852 283.122 186.31 282.875 185.916 282.38C185.444 281.784 185.208 280.814 185.208 279.47ZM186.111 279.47C186.111 280.645 186.248 281.428 186.521 281.818C186.798 282.206 187.138 282.399 187.542 282.399C187.946 282.399 188.284 282.204 188.558 281.813C188.834 281.423 188.973 280.642 188.973 279.47C188.973 278.291 188.834 277.508 188.558 277.121C188.284 276.734 187.942 276.54 187.532 276.54C187.129 276.54 186.806 276.711 186.565 277.053C186.263 277.489 186.111 278.295 186.111 279.47ZM191.019 283V277.814H191.805V278.542C191.967 278.288 192.184 278.085 192.454 277.932C192.724 277.775 193.032 277.697 193.377 277.697C193.761 277.697 194.075 277.777 194.319 277.937C194.567 278.096 194.741 278.319 194.842 278.605C195.252 278 195.786 277.697 196.443 277.697C196.958 277.697 197.353 277.84 197.63 278.127C197.907 278.41 198.045 278.848 198.045 279.44V283H197.171V279.733C197.171 279.382 197.142 279.13 197.083 278.977C197.028 278.82 196.925 278.695 196.775 278.601C196.626 278.506 196.45 278.459 196.248 278.459C195.883 278.459 195.581 278.581 195.34 278.825C195.099 279.066 194.979 279.453 194.979 279.987V283H194.1V279.631C194.1 279.24 194.028 278.947 193.885 278.752C193.742 278.557 193.507 278.459 193.182 278.459C192.934 278.459 192.705 278.524 192.493 278.654C192.285 278.785 192.133 278.975 192.039 279.226C191.945 279.476 191.897 279.838 191.897 280.31V283H191.019ZM199.354 276.853V275.842H200.232V276.853H199.354ZM199.354 283V277.814H200.232V283H199.354ZM201.556 283V275.842H202.435V283H201.556Z" fill="white"/>
<path d="M271.786 285V277.842H274.96C275.598 277.842 276.083 277.907 276.415 278.037C276.747 278.164 277.012 278.39 277.211 278.716C277.41 279.041 277.509 279.401 277.509 279.795C277.509 280.303 277.344 280.731 277.016 281.079C276.687 281.427 276.179 281.649 275.492 281.743C275.743 281.864 275.933 281.982 276.063 282.1C276.34 282.354 276.602 282.671 276.85 283.052L278.095 285H276.903L275.956 283.511C275.679 283.081 275.451 282.752 275.272 282.524C275.093 282.297 274.932 282.137 274.789 282.046C274.649 281.955 274.506 281.891 274.359 281.855C274.252 281.833 274.076 281.821 273.832 281.821H272.733V285H271.786ZM272.733 281.001H274.77C275.202 281.001 275.541 280.957 275.785 280.869C276.029 280.778 276.215 280.635 276.342 280.439C276.469 280.241 276.532 280.026 276.532 279.795C276.532 279.456 276.409 279.178 276.161 278.96C275.917 278.742 275.53 278.633 274.999 278.633H272.733V281.001ZM278.7 278.779V277.935H283.334V278.618C282.878 279.103 282.426 279.748 281.977 280.552C281.531 281.356 281.186 282.183 280.941 283.032C280.766 283.631 280.653 284.287 280.604 285H279.701C279.711 284.437 279.822 283.757 280.033 282.959C280.245 282.161 280.548 281.393 280.941 280.654C281.339 279.912 281.76 279.287 282.206 278.779H278.7ZM284.208 283.125L285.131 283.047C285.199 283.496 285.357 283.835 285.604 284.062C285.855 284.287 286.156 284.399 286.508 284.399C286.931 284.399 287.289 284.24 287.582 283.921C287.875 283.602 288.021 283.179 288.021 282.651C288.021 282.15 287.88 281.755 287.597 281.465C287.317 281.175 286.949 281.03 286.493 281.03C286.21 281.03 285.954 281.095 285.727 281.226C285.499 281.353 285.32 281.519 285.189 281.724L284.364 281.616L285.058 277.939H288.617V278.779H285.761L285.375 280.703C285.805 280.404 286.256 280.254 286.728 280.254C287.353 280.254 287.88 280.47 288.31 280.903C288.739 281.336 288.954 281.893 288.954 282.573C288.954 283.221 288.765 283.781 288.388 284.253C287.929 284.832 287.302 285.122 286.508 285.122C285.857 285.122 285.325 284.94 284.911 284.575C284.501 284.211 284.267 283.727 284.208 283.125ZM290.019 285V279.814H290.805V280.542C290.967 280.288 291.184 280.085 291.454 279.932C291.724 279.775 292.032 279.697 292.377 279.697C292.761 279.697 293.075 279.777 293.319 279.937C293.567 280.096 293.741 280.319 293.842 280.605C294.252 280 294.786 279.697 295.443 279.697C295.958 279.697 296.353 279.84 296.63 280.127C296.907 280.41 297.045 280.848 297.045 281.44V285H296.171V281.733C296.171 281.382 296.142 281.13 296.083 280.977C296.028 280.82 295.925 280.695 295.775 280.601C295.626 280.506 295.45 280.459 295.248 280.459C294.883 280.459 294.581 280.581 294.34 280.825C294.099 281.066 293.979 281.453 293.979 281.987V285H293.1V281.631C293.1 281.24 293.028 280.947 292.885 280.752C292.742 280.557 292.507 280.459 292.182 280.459C291.934 280.459 291.705 280.524 291.493 280.654C291.285 280.785 291.133 280.975 291.039 281.226C290.945 281.476 290.897 281.838 290.897 282.31V285H290.019ZM298.354 278.853V277.842H299.232V278.853H298.354ZM298.354 285V279.814H299.232V285H298.354ZM300.556 285V277.842H301.435V285H300.556Z" fill="white"/>
<rect x="44" y="242" width="20" height="20" fill="#004B6A"/>
<rect x="44" y="274" width="20" height="20" fill="#017D67"/>
<rect x="44" y="306" width="20" height="20" fill="#58595B"/>
<path d="M77.2578 258V246.547H82.3359C83.3568 246.547 84.1328 246.651 84.6641 246.859C85.1953 247.062 85.6198 247.424 85.9375 247.945C86.2552 248.466 86.4141 249.042 86.4141 249.672C86.4141 250.484 86.151 251.169 85.625 251.727C85.099 252.284 84.2865 252.638 83.1875 252.789C83.5885 252.982 83.8932 253.172 84.1016 253.359C84.5443 253.766 84.9635 254.273 85.3594 254.883L87.3516 258H85.4453L83.9297 255.617C83.487 254.93 83.1224 254.404 82.8359 254.039C82.5495 253.674 82.2917 253.419 82.0625 253.273C81.8385 253.128 81.6094 253.026 81.375 252.969C81.2031 252.932 80.9219 252.914 80.5312 252.914H78.7734V258H77.2578ZM78.7734 251.602H82.0312C82.724 251.602 83.2656 251.531 83.6562 251.391C84.0469 251.245 84.3438 251.016 84.5469 250.703C84.75 250.385 84.8516 250.042 84.8516 249.672C84.8516 249.13 84.6536 248.685 84.2578 248.336C83.8672 247.987 83.2474 247.812 82.3984 247.812H78.7734V251.602ZM94.2969 255.328L95.75 255.508C95.5208 256.357 95.0964 257.016 94.4766 257.484C93.8568 257.953 93.0651 258.188 92.1016 258.188C90.888 258.188 89.9245 257.815 89.2109 257.07C88.5026 256.32 88.1484 255.271 88.1484 253.922C88.1484 252.526 88.5078 251.443 89.2266 250.672C89.9453 249.901 90.8776 249.516 92.0234 249.516C93.1328 249.516 94.0391 249.893 94.7422 250.648C95.4453 251.404 95.7969 252.466 95.7969 253.836C95.7969 253.919 95.7943 254.044 95.7891 254.211H89.6016C89.6536 255.122 89.9115 255.82 90.375 256.305C90.8385 256.789 91.4167 257.031 92.1094 257.031C92.625 257.031 93.0651 256.896 93.4297 256.625C93.7943 256.354 94.0833 255.922 94.2969 255.328ZM89.6797 253.055H94.3125C94.25 252.357 94.0729 251.833 93.7812 251.484C93.3333 250.943 92.7526 250.672 92.0391 250.672C91.3932 250.672 90.849 250.888 90.4062 251.32C89.9688 251.753 89.7266 252.331 89.6797 253.055ZM100.594 256.742L100.797 257.984C100.401 258.068 100.047 258.109 99.7344 258.109C99.224 258.109 98.8281 258.029 98.5469 257.867C98.2656 257.706 98.0677 257.495 97.9531 257.234C97.8385 256.969 97.7812 256.414 97.7812 255.57V250.797H96.75V249.703H97.7812V247.648L99.1797 246.805V249.703H100.594V250.797H99.1797V255.648C99.1797 256.049 99.2031 256.307 99.25 256.422C99.3021 256.536 99.3828 256.628 99.4922 256.695C99.6068 256.763 99.7682 256.797 99.9766 256.797C100.133 256.797 100.339 256.779 100.594 256.742ZM107.391 256.977C106.87 257.419 106.367 257.732 105.883 257.914C105.404 258.096 104.888 258.188 104.336 258.188C103.424 258.188 102.724 257.966 102.234 257.523C101.745 257.076 101.5 256.505 101.5 255.812C101.5 255.406 101.591 255.036 101.773 254.703C101.961 254.365 102.203 254.094 102.5 253.891C102.802 253.688 103.141 253.534 103.516 253.43C103.792 253.357 104.208 253.286 104.766 253.219C105.901 253.083 106.737 252.922 107.273 252.734C107.279 252.542 107.281 252.419 107.281 252.367C107.281 251.794 107.148 251.391 106.883 251.156C106.523 250.839 105.99 250.68 105.281 250.68C104.62 250.68 104.13 250.797 103.812 251.031C103.5 251.26 103.268 251.669 103.117 252.258L101.742 252.07C101.867 251.482 102.073 251.008 102.359 250.648C102.646 250.284 103.06 250.005 103.602 249.812C104.143 249.615 104.771 249.516 105.484 249.516C106.193 249.516 106.768 249.599 107.211 249.766C107.654 249.932 107.979 250.143 108.188 250.398C108.396 250.648 108.542 250.966 108.625 251.352C108.672 251.591 108.695 252.023 108.695 252.648V254.523C108.695 255.831 108.724 256.659 108.781 257.008C108.844 257.352 108.964 257.682 109.141 258H107.672C107.526 257.708 107.432 257.367 107.391 256.977ZM107.273 253.836C106.763 254.044 105.997 254.221 104.977 254.367C104.398 254.451 103.99 254.544 103.75 254.648C103.51 254.753 103.326 254.906 103.195 255.109C103.065 255.307 103 255.529 103 255.773C103 256.148 103.141 256.461 103.422 256.711C103.708 256.961 104.125 257.086 104.672 257.086C105.214 257.086 105.695 256.969 106.117 256.734C106.539 256.495 106.849 256.169 107.047 255.758C107.198 255.44 107.273 254.971 107.273 254.352V253.836ZM110.891 248.164V246.547H112.297V248.164H110.891ZM110.891 258V249.703H112.297V258H110.891ZM114.414 258V246.547H115.82V258H114.414Z" fill="#58595B"/>
<path d="M76.7734 284.422C76.7734 282.521 77.2839 281.034 78.3047 279.961C79.3255 278.883 80.6432 278.344 82.2578 278.344C83.3151 278.344 84.2682 278.596 85.1172 279.102C85.9661 279.607 86.612 280.312 87.0547 281.219C87.5026 282.12 87.7266 283.143 87.7266 284.289C87.7266 285.451 87.4922 286.49 87.0234 287.406C86.5547 288.323 85.8906 289.018 85.0312 289.492C84.1719 289.961 83.2448 290.195 82.25 290.195C81.1719 290.195 80.2083 289.935 79.3594 289.414C78.5104 288.893 77.8672 288.182 77.4297 287.281C76.9922 286.38 76.7734 285.427 76.7734 284.422ZM78.3359 284.445C78.3359 285.826 78.7057 286.914 79.4453 287.711C80.1901 288.503 81.1224 288.898 82.2422 288.898C83.3828 288.898 84.3203 288.497 85.0547 287.695C85.7943 286.893 86.1641 285.755 86.1641 284.281C86.1641 283.349 86.0052 282.536 85.6875 281.844C85.375 281.146 84.9141 280.607 84.3047 280.227C83.7005 279.841 83.0208 279.648 82.2656 279.648C81.1927 279.648 80.2682 280.018 79.4922 280.758C78.7214 281.492 78.3359 282.721 78.3359 284.445ZM89.8438 290V282.797H88.6016V281.703H89.8438V280.82C89.8438 280.263 89.8932 279.849 89.9922 279.578C90.1276 279.214 90.3646 278.919 90.7031 278.695C91.0469 278.466 91.526 278.352 92.1406 278.352C92.5365 278.352 92.974 278.398 93.4531 278.492L93.2422 279.719C92.9505 279.667 92.6745 279.641 92.4141 279.641C91.987 279.641 91.6849 279.732 91.5078 279.914C91.3307 280.096 91.2422 280.438 91.2422 280.938V281.703H92.8594V282.797H91.2422V290H89.8438ZM94 290V282.797H92.7578V281.703H94V280.82C94 280.263 94.0495 279.849 94.1484 279.578C94.2839 279.214 94.5208 278.919 94.8594 278.695C95.2031 278.466 95.6823 278.352 96.2969 278.352C96.6927 278.352 97.1302 278.398 97.6094 278.492L97.3984 279.719C97.1068 279.667 96.8307 279.641 96.5703 279.641C96.1432 279.641 95.8411 279.732 95.6641 279.914C95.487 280.096 95.3984 280.438 95.3984 280.938V281.703H97.0156V282.797H95.3984V290H94ZM98.125 280.164V278.547H99.5312V280.164H98.125ZM98.125 290V281.703H99.5312V290H98.125ZM107.094 286.961L108.477 287.141C108.326 288.094 107.938 288.841 107.312 289.383C106.693 289.919 105.93 290.188 105.023 290.188C103.888 290.188 102.974 289.818 102.281 289.078C101.594 288.333 101.25 287.268 101.25 285.883C101.25 284.987 101.398 284.203 101.695 283.531C101.992 282.859 102.443 282.357 103.047 282.023C103.656 281.685 104.318 281.516 105.031 281.516C105.932 281.516 106.669 281.745 107.242 282.203C107.815 282.656 108.182 283.302 108.344 284.141L106.977 284.352C106.846 283.794 106.615 283.375 106.281 283.094C105.953 282.812 105.555 282.672 105.086 282.672C104.378 282.672 103.802 282.927 103.359 283.438C102.917 283.943 102.695 284.745 102.695 285.844C102.695 286.958 102.909 287.768 103.336 288.273C103.763 288.779 104.32 289.031 105.008 289.031C105.56 289.031 106.021 288.862 106.391 288.523C106.76 288.185 106.995 287.664 107.094 286.961ZM115.359 287.328L116.812 287.508C116.583 288.357 116.159 289.016 115.539 289.484C114.919 289.953 114.128 290.188 113.164 290.188C111.951 290.188 110.987 289.815 110.273 289.07C109.565 288.32 109.211 287.271 109.211 285.922C109.211 284.526 109.57 283.443 110.289 282.672C111.008 281.901 111.94 281.516 113.086 281.516C114.195 281.516 115.102 281.893 115.805 282.648C116.508 283.404 116.859 284.466 116.859 285.836C116.859 285.919 116.857 286.044 116.852 286.211H110.664C110.716 287.122 110.974 287.82 111.438 288.305C111.901 288.789 112.479 289.031 113.172 289.031C113.688 289.031 114.128 288.896 114.492 288.625C114.857 288.354 115.146 287.922 115.359 287.328ZM110.742 285.055H115.375C115.312 284.357 115.135 283.833 114.844 283.484C114.396 282.943 113.815 282.672 113.102 282.672C112.456 282.672 111.911 282.888 111.469 283.32C111.031 283.753 110.789 284.331 110.742 285.055Z" fill="#58595B"/>
<path d="M77.4922 322V310.547H79.0078V322H77.4922ZM81.5078 322V313.703H82.7734V314.883C83.3828 313.971 84.263 313.516 85.4141 313.516C85.9141 313.516 86.3724 313.607 86.7891 313.789C87.2109 313.966 87.526 314.201 87.7344 314.492C87.9427 314.784 88.0885 315.13 88.1719 315.531C88.224 315.792 88.25 316.247 88.25 316.898V322H86.8438V316.953C86.8438 316.38 86.7891 315.953 86.6797 315.672C86.5703 315.385 86.375 315.159 86.0938 314.992C85.8177 314.82 85.4922 314.734 85.1172 314.734C84.5182 314.734 84 314.924 83.5625 315.305C83.1302 315.685 82.9141 316.406 82.9141 317.469V322H81.5078ZM95.7969 322V320.953C95.2708 321.776 94.4974 322.188 93.4766 322.188C92.8151 322.188 92.2057 322.005 91.6484 321.641C91.0964 321.276 90.6667 320.768 90.3594 320.117C90.0573 319.461 89.9062 318.708 89.9062 317.859C89.9062 317.031 90.0443 316.281 90.3203 315.609C90.5964 314.932 91.0104 314.414 91.5625 314.055C92.1146 313.695 92.7318 313.516 93.4141 313.516C93.9141 313.516 94.3594 313.622 94.75 313.836C95.1406 314.044 95.4583 314.318 95.7031 314.656V310.547H97.1016V322H95.7969ZM91.3516 317.859C91.3516 318.922 91.5755 319.716 92.0234 320.242C92.4714 320.768 93 321.031 93.6094 321.031C94.224 321.031 94.7448 320.781 95.1719 320.281C95.6042 319.776 95.8203 319.008 95.8203 317.977C95.8203 316.841 95.6016 316.008 95.1641 315.477C94.7266 314.945 94.1875 314.68 93.5469 314.68C92.9219 314.68 92.3984 314.935 91.9766 315.445C91.5599 315.956 91.3516 316.76 91.3516 317.859ZM104.758 322V320.781C104.112 321.719 103.234 322.188 102.125 322.188C101.635 322.188 101.177 322.094 100.75 321.906C100.328 321.719 100.013 321.484 99.8047 321.203C99.6016 320.917 99.4583 320.568 99.375 320.156C99.3177 319.88 99.2891 319.443 99.2891 318.844V313.703H100.695V318.305C100.695 319.039 100.724 319.534 100.781 319.789C100.87 320.159 101.057 320.451 101.344 320.664C101.63 320.872 101.984 320.977 102.406 320.977C102.828 320.977 103.224 320.87 103.594 320.656C103.964 320.438 104.224 320.143 104.375 319.773C104.531 319.398 104.609 318.857 104.609 318.148V313.703H106.016V322H104.758ZM107.664 319.523L109.055 319.305C109.133 319.862 109.349 320.289 109.703 320.586C110.062 320.883 110.562 321.031 111.203 321.031C111.849 321.031 112.328 320.901 112.641 320.641C112.953 320.375 113.109 320.065 113.109 319.711C113.109 319.393 112.971 319.143 112.695 318.961C112.503 318.836 112.023 318.677 111.258 318.484C110.227 318.224 109.51 318 109.109 317.812C108.714 317.62 108.411 317.357 108.203 317.023C108 316.685 107.898 316.312 107.898 315.906C107.898 315.536 107.982 315.195 108.148 314.883C108.32 314.565 108.552 314.302 108.844 314.094C109.062 313.932 109.359 313.797 109.734 313.688C110.115 313.573 110.521 313.516 110.953 313.516C111.604 313.516 112.174 313.609 112.664 313.797C113.159 313.984 113.523 314.24 113.758 314.562C113.992 314.88 114.154 315.307 114.242 315.844L112.867 316.031C112.805 315.604 112.622 315.271 112.32 315.031C112.023 314.792 111.602 314.672 111.055 314.672C110.409 314.672 109.948 314.779 109.672 314.992C109.396 315.206 109.258 315.456 109.258 315.742C109.258 315.924 109.315 316.089 109.43 316.234C109.544 316.385 109.724 316.51 109.969 316.609C110.109 316.661 110.523 316.781 111.211 316.969C112.206 317.234 112.898 317.453 113.289 317.625C113.685 317.792 113.995 318.036 114.219 318.359C114.443 318.682 114.555 319.083 114.555 319.562C114.555 320.031 114.417 320.474 114.141 320.891C113.87 321.302 113.477 321.622 112.961 321.852C112.445 322.076 111.862 322.188 111.211 322.188C110.133 322.188 109.31 321.964 108.742 321.516C108.18 321.068 107.82 320.404 107.664 319.523ZM119.297 320.742L119.5 321.984C119.104 322.068 118.75 322.109 118.438 322.109C117.927 322.109 117.531 322.029 117.25 321.867C116.969 321.706 116.771 321.495 116.656 321.234C116.542 320.969 116.484 320.414 116.484 319.57V314.797H115.453V313.703H116.484V311.648L117.883 310.805V313.703H119.297V314.797H117.883V319.648C117.883 320.049 117.906 320.307 117.953 320.422C118.005 320.536 118.086 320.628 118.195 320.695C118.31 320.763 118.471 320.797 118.68 320.797C118.836 320.797 119.042 320.779 119.297 320.742ZM120.664 322V313.703H121.93V314.961C122.253 314.372 122.549 313.984 122.82 313.797C123.096 313.609 123.398 313.516 123.727 313.516C124.201 313.516 124.682 313.667 125.172 313.969L124.688 315.273C124.344 315.07 124 314.969 123.656 314.969C123.349 314.969 123.073 315.062 122.828 315.25C122.583 315.432 122.409 315.688 122.305 316.016C122.148 316.516 122.07 317.062 122.07 317.656V322H120.664ZM126.016 312.164V310.547H127.422V312.164H126.016ZM126.016 322V313.703H127.422V322H126.016ZM134.984 320.977C134.464 321.419 133.961 321.732 133.477 321.914C132.997 322.096 132.482 322.188 131.93 322.188C131.018 322.188 130.318 321.966 129.828 321.523C129.339 321.076 129.094 320.505 129.094 319.812C129.094 319.406 129.185 319.036 129.367 318.703C129.555 318.365 129.797 318.094 130.094 317.891C130.396 317.688 130.734 317.534 131.109 317.43C131.385 317.357 131.802 317.286 132.359 317.219C133.495 317.083 134.331 316.922 134.867 316.734C134.872 316.542 134.875 316.419 134.875 316.367C134.875 315.794 134.742 315.391 134.477 315.156C134.117 314.839 133.583 314.68 132.875 314.68C132.214 314.68 131.724 314.797 131.406 315.031C131.094 315.26 130.862 315.669 130.711 316.258L129.336 316.07C129.461 315.482 129.667 315.008 129.953 314.648C130.24 314.284 130.654 314.005 131.195 313.812C131.737 313.615 132.365 313.516 133.078 313.516C133.786 313.516 134.362 313.599 134.805 313.766C135.247 313.932 135.573 314.143 135.781 314.398C135.99 314.648 136.135 314.966 136.219 315.352C136.266 315.591 136.289 316.023 136.289 316.648V318.523C136.289 319.831 136.318 320.659 136.375 321.008C136.438 321.352 136.557 321.682 136.734 322H135.266C135.12 321.708 135.026 321.367 134.984 320.977ZM134.867 317.836C134.357 318.044 133.591 318.221 132.57 318.367C131.992 318.451 131.583 318.544 131.344 318.648C131.104 318.753 130.919 318.906 130.789 319.109C130.659 319.307 130.594 319.529 130.594 319.773C130.594 320.148 130.734 320.461 131.016 320.711C131.302 320.961 131.719 321.086 132.266 321.086C132.807 321.086 133.289 320.969 133.711 320.734C134.133 320.495 134.443 320.169 134.641 319.758C134.792 319.44 134.867 318.971 134.867 318.352V317.836ZM138.445 322V310.547H139.852V322H138.445Z" fill="#58595B"/>
</svg>
