<svg width="96" height="96" viewBox="0 0 96 96" fill="none" xmlns="http://www.w3.org/2000/svg">
<g opacity="0.2">
<path d="M84.84 63.5599C82.2953 69.5779 78.3151 74.8808 73.2475 79.0051C68.1799 83.1295 62.1791 85.9497 55.7697 87.2191C49.3604 88.4885 42.7377 88.1685 36.4806 86.2871C30.2235 84.4057 24.5225 81.0202 19.8761 76.4266C15.2297 71.8329 11.7793 66.171 9.82654 59.9357C7.87382 53.7005 7.47824 47.0819 8.67439 40.6585C9.87053 34.2351 12.622 28.2025 16.6882 23.0881C20.7544 17.9737 26.0115 13.9332 32 11.3199" stroke="white" stroke-width="2" stroke-linecap="round" stroke-linejoin="round"/>
<path d="M88 48C88 42.7471 86.9654 37.5457 84.9552 32.6927C82.945 27.8396 79.9986 23.4301 76.2843 19.7157C72.5699 16.0014 68.1604 13.055 63.3073 11.0448C58.4543 9.03463 53.2529 8 48 8V48H88Z" stroke="white" stroke-width="2" stroke-linecap="round" stroke-linejoin="round"/>
</g>
</svg>
